<?xml version="1.0" standalone="no"?>
<!DOCTYPE svg PUBLIC "-//W3C//DTD SVG 1.1//EN" "http://www.w3.org/Graphics/SVG/1.1/DTD/svg11.dtd" >
<svg xmlns="http://www.w3.org/2000/svg">
<metadata></metadata>
<defs>
<font id="sociconregular" horiz-adv-x="2048" >
<font-face units-per-em="2048" ascent="1920" descent="-128" />
<missing-glyph horiz-adv-x="1024" />
<glyph horiz-adv-x="0" d="M0 0z" />
<glyph horiz-adv-x="0" d="M0 0z" />
<glyph horiz-adv-x="682" />
<glyph horiz-adv-x="0" d="M0 0z" />
<glyph unicode=" " horiz-adv-x="1024" d="M0 0z" />
<glyph unicode="#" d="M128 760q0 -60 8 -118t24 -114q14 -54 36 -106t50 -100q32 -52 68 -98t80 -88q42 -40 89 -76t99 -64q2 0 2 -1t2 -1l3 -3t3 -1q2 -2 4 -2t2 -2q2 0 4 -1l6 -3l2 -1t4 -3q2 0 3 -1l1 -1l6 -3t4 -1l2 -2q46 -22 95 -39t99 -29t103 -18t105 -6q178 0 339 62t283 174 q122 114 194 274t72 356t-62 340t-140 242q-78 96 -151 149t-97 69q-2 0 -3 1t-3 1q-32 22 -66 38t-66 32q-34 14 -67 29t-65 35q-8 4 -16 9t-16 11q-22 14 -49 40t-55 56t-57 63t-55 65h-1h-1q0 -16 -2 -30t-6 -28q-2 -12 -5 -24t-5 -22q-8 -22 -16 -40t-18 -32 q-8 -14 -19 -26t-21 -22q-2 -2 -5 -3t-5 -3q-38 -30 -69 -50t-61 -38q-30 -16 -59 -30t-61 -32q-6 -4 -14 -8t-18 -10q-20 -12 -46 -30t-56 -42q-30 -26 -63 -57t-65 -69q-40 -48 -78 -107t-66 -129q-30 -70 -47 -153t-17 -179zM516 454q2 56 28 110t70 96t103 67t127 25 q86 2 160 -34t136 -78q64 -44 116 -79t96 -35q36 0 87 31t105 67t103 67t85 31t61 -17t39 -43q14 -24 20 -53t6 -51q0 -24 -4 -54t-12 -64q-8 -32 -21 -65t-31 -57q-16 -26 -32 -44t-30 -30q-16 -10 -32 -15t-38 -3q-26 2 -64 38t-80 78t-83 78t-75 38q-44 0 -109 -37 t-141 -81q-76 -46 -156 -84t-154 -38q-44 0 -74 3t-52 9q-20 6 -36 14t-30 18q-22 16 -39 35t-27 43q-12 24 -17 52t-5 62zM928 66q2 12 10 18q6 6 13 10t15 4h11t5 -4q16 -12 35 -22t45 -18t62 -12t84 -4q46 0 86 6t72 14q34 10 57 22t39 22q12 10 19 5t9 -11q0 -6 1 -14 t-9 -20q-8 -6 -68 -40t-140 -42q-40 -4 -85 -6t-91 4q-44 6 -86 21t-74 43q-12 12 -10 24zM1117 215q3 13 19 27q8 8 19 17t23 17q10 10 23 18t25 14q14 4 24 7t20 3q8 2 18 2h22t24 -1t24 -3q10 -2 21 -5t19 -9q18 -12 29 -34t17 -38q6 -14 1 -24t-17 -16q-10 -6 -15 -1 t-15 23q-4 10 -10 19t-16 17t-26 12t-42 4t-44 -4t-32 -12q-14 -6 -25 -16t-23 -20q-26 -20 -37 -26t-21 4q-8 12 -5 25z" />
<glyph unicode="$" d="M10 1514q-28 -76 21 -187t179 -187t341 -84t505 122q-2 4 -7 16t-7 16q-108 220 -269 333t-317 139t-282 -21t-164 -147zM533 172q1 -12 5 -22t12 -18t20 -12q16 -6 58 -21t46 -17q36 -12 79 -25t91 -25q48 -14 101 -25t109 -21q-34 32 -63 67t-55 71q-28 38 -50 78 t-42 82q-18 42 -33 87t-25 91t-16 92t-6 94q-32 -48 -59 -95t-49 -93q-24 -44 -43 -86t-35 -76q-2 -4 -19 -45t-23 -59q-4 -10 -3 -22zM926 636q2 -48 10 -96t22 -96t36 -94q20 -46 44 -87t54 -77q28 -38 61 -71t69 -61q22 -18 52 -32t62 -24q34 -10 69 -15t67 -5q30 0 60 4 t60 12t58 20t54 24q18 10 46 27t30 19q-16 4 -32 9t-30 13q-14 6 -28 15t-28 19q-46 36 -87 77t-79 89q-36 48 -67 101t-57 111q-28 60 -46 120t-30 118q-10 60 -13 120t3 118q2 18 5 34t7 32q4 14 11 30t13 30q-2 0 -6 -2l-4 -2q-26 -6 -50 -14t-46 -18q-24 -10 -46 -22 t-42 -26q-32 -20 -60 -45t-52 -53t-42 -61t-30 -67q-4 -10 -6 -20l-4 -20l-4 -20t-2 -20q-4 -46 -2 -94zM1131 1513q-13 -115 47 -263q0 -2 3 -9t5 -9q166 74 244 168t96 180q20 88 -6 153t-68 81q-58 22 -131 -7t-125 -103q-52 -76 -65 -191zM1468 882q2 -48 12 -96 q8 -50 23 -98t37 -94q20 -48 45 -91t55 -81t63 -72t71 -64q10 -8 21 -13t23 -9t23 -6t23 -2q22 0 43 6t41 18q18 10 32 26t24 36q22 54 33 111t11 115t-13 117t-37 115q-26 56 -61 105t-77 87q-42 40 -92 69t-102 49q-12 4 -23 6t-21 2q-28 0 -54 -11t-48 -29 q-20 -20 -34 -45t-16 -55q-4 -48 -2 -96z" />
<glyph unicode="&#x26;" d="M3 1614q-1 -20 5 -40q32 -78 232 -565l200 -487l-26 -56q-16 -42 -34 -78t-44 -62t-60 -40t-82 -14q-10 0 -33 1t-25 3q-16 0 -31 -5t-27 -13t-21 -21t-13 -29q-4 -18 -2 -35t10 -33q10 -14 23 -25t31 -17q12 -2 25 -3t27 -3q12 0 24 -1t24 -1q90 0 151 25t107 69 q44 44 76 106t60 136l218 543t232 577q2 6 4 11t4 9l1 1q1 1 1 3q6 20 4 39t-10 37q-10 16 -25 29t-33 19q-20 6 -39 5t-35 -11q-18 -8 -31 -22t-19 -32l-1 -4t-1 -6v-4v-2q-26 -62 -173 -451l-147 -389h-4l-338 858v1v1l-4 12q-10 20 -24 33t-32 21q-18 6 -38 7t-38 -7 q-20 -6 -35 -20t-23 -32q-10 -18 -11 -38zM1170 634q0 -30 71 -93t157 -129q86 -64 163 -116t91 -60l16 -8q8 -2 17 -3t17 -1q16 0 30 3t28 11q14 6 25 17t19 23q12 20 16 42t0 44q-2 20 -14 40t-32 36q-62 34 -142 74t-160 74t-148 57t-106 23q-12 0 -21 -2t-15 -8 q-6 -4 -10 -10t-2 -14zM1170 1168q-2 -6 2 -13t10 -11t15 -7t21 -3q38 0 107 23t147 57q80 34 161 75t145 75q18 16 29 35t15 41q2 20 -2 42t-16 42q-8 12 -19 23t-25 17q-14 8 -28 12t-30 4q-8 0 -17 -2t-19 -4l-14 -8q-14 -8 -91 -60t-163 -116q-86 -66 -157 -129t-71 -93 zM1320 892q0 -10 2 -16q34 -68 328 -83t302 -9q22 4 41 16t33 28q12 18 19 40t5 44q0 20 -8 38t-20 34q-14 14 -31 25t-37 15h-14q-18 0 -110 -8t-198 -24q-108 -16 -200 -37t-108 -47q-4 -6 -4 -16z" />
<glyph unicode="(" d="M222 -122h1334v860h-164v-698h-1022l6 688l-154 2v-852zM472 164v164h798v-164h-798zM476 458l16 176l804 -78l-16 -174zM518 812l48 170l776 -220l-46 -168zM664 1224l90 150l692 -418l-92 -150zM1004 1644l144 102l470 -656l-142 -102zM1520 1896l174 30l132 -798 l-172 -28z" />
<glyph unicode="*" d="M30 873q0 -21 10 -31q6 -6 51 -7t179 1q90 2 156 5t68 5q2 0 1 9t-3 21q-4 16 -9 22t-21 10q-14 2 -56 4t-96 2q-90 0 -178 -3t-92 -7q-10 -10 -10 -31zM528 918q2 -2 45 -5t101 -5q90 -4 119 -3t37 9q10 8 18 12t16 6q8 0 17 -2t21 -6q18 -10 24 -22t2 -36 q-2 -14 -12 -24t-26 -14q-14 -4 -29 -2t-25 12q-8 10 -34 11t-116 -3q-56 -2 -98 -5l-42 -3q-6 -6 12 -33t42 -47q22 -20 50 -36t64 -30q34 -12 74 -21t86 -13q58 -6 127 -3t141 17q74 12 146 33t136 49q42 18 86 44t86 54q40 28 72 56t48 52q8 10 17 21t11 15q14 14 25 38 t17 52t7 55t-5 49q-6 26 -29 62t-35 36q-8 0 -61 -57t-57 -69q-2 -12 0 -20t10 -12q8 -6 22 -8t36 -2q46 0 44 -6t-54 -26q-32 -12 -51 -24t-27 -26t-5 -32t15 -44q6 -16 10 -27l4 -11q-2 -2 -14 1t-28 9q-18 4 -32 7t-24 3q-12 0 -21 -2t-19 -6t-20 -17t-20 -31 q-8 -16 -15 -33t-7 -27q0 -8 -2 -14t-6 -8q-6 -4 -15 15t-9 39q0 8 -8 22t-18 28l-17 17t-15 9q-6 4 -17 4h-31t-44 -2t-38 -4l-32 -6l46 48q16 16 25 26t13 20q6 8 7 16t1 20q0 14 -3 27t-11 25q-6 12 -18 25t-28 27l-24 22l32 -6q42 -8 72 -6t52 16t34 40t18 66q2 14 5 24 t7 10q2 0 8 -12l14 -28q8 -20 16 -31t16 -17q8 -4 18 -2t22 12q18 12 56 54t42 54q4 14 -60 22t-148 8q-32 0 -65 -1t-65 -3q-30 -2 -58 -6t-48 -10q-92 -22 -121 -33t-23 -23q2 -6 7 -19t9 -25q14 -40 23 -58t15 -18q8 0 27 -23t19 -33q0 -6 -6 -16t-14 -18 q-10 -10 -20 -15t-22 -7q-12 0 -22 4t-20 14q-12 10 -15 19t1 29q2 12 1 23t-7 27q-4 14 -14 35t-24 53l-10 18l-56 -28q-66 -32 -120 -69t-96 -77q-40 -42 -68 -85t-42 -89q-4 -14 -7 -25t-1 -11zM609 606q-5 -4 15 -48q8 -16 16 -36t14 -32q4 -12 11 -27t11 -25l9 -18 t11 -26q6 -14 15 -34t21 -48q6 -14 13 -30t11 -26q4 -8 10 -21t12 -29t14 -34l16 -36q16 -36 27 -59t19 -39q10 -16 20 -27t22 -25q18 -16 40 -31t48 -27t53 -22t57 -16q44 -10 95 -12t107 2q54 4 108 14t104 26t92 34t78 38q36 22 68 47t62 57q26 26 40 41t22 25 q10 12 16 23t14 27q10 20 16 40t8 44t1 53t-5 69q-2 18 -5 42t-5 46q-2 24 -5 46t-5 38t-4 37t-6 41q-2 22 -5 42t-5 36t-4 34t-6 38q-2 18 -4 35t-2 29q-2 32 -6 47t-8 15q-2 0 -4 -6t-4 -20q-4 -30 -30 -156t-30 -136q-2 -6 -6 -25t-8 -43q-2 -12 -5 -25t-5 -25 q-4 -14 -6 -26t-4 -20t-5 -21t-5 -31q-4 -16 -8 -33t-6 -35q-16 -72 -26 -105t-16 -33q-2 0 -61 56t-139 134l-196 192l-14 -30q-4 -14 -10 -33t-8 -33t-6 -28t-6 -20q-4 -4 -13 -35t-19 -69q-6 -18 -11 -38t-11 -38q-4 -18 -8 -32t-6 -22q-4 -8 -7 -20t-5 -24 q-4 -14 -7 -27t-7 -23q-12 -48 -25 -52t-41 28q-28 30 -85 94t-65 72q-2 4 -18 21t-34 37t-35 40t-25 28q-6 8 -26 30t-42 46t-40 44t-20 24q-4 2 -18 17t-28 33q-32 34 -37 30zM685 1885q-3 -21 5 -45t21 -47t21 -39q6 -14 0 -1t0 1q20 -46 40 -91t40 -91q20 -44 39 -90 t39 -90q4 -8 14 -33t24 -19q30 12 30 17t-10 35l-16 44l-16 44q-6 20 -14 42l-16 44q-10 34 -23 66t-27 64q-12 34 -25 66t-25 66q-2 10 -9 29t-17 37q-8 16 -21 26t-29 0q-22 -14 -25 -35zM1387 1077q3 -15 17 -25q8 -4 17 -8t13 -4q14 0 31 19t17 37q0 10 17 32t57 64 q14 16 36 38t46 48t49 52t47 48t48 49t50 53q26 28 49 51t39 41q40 40 61 63t29 35q8 14 8 21t-6 15q-4 8 -13 16t-17 10h-6h-6q-12 0 -32 -21t-74 -85q-8 -10 -18 -21t-18 -21q-10 -12 -18 -21t-14 -17q-6 -6 -15 -16t-19 -22q-12 -12 -22 -25t-20 -25q-10 -10 -22 -24 l-24 -28t-23 -27t-21 -23q-26 -30 -47 -55t-39 -45q-16 -20 -31 -37t-29 -33q-18 -22 -31 -32t-23 -10q-16 0 -27 -11t-15 -25q-4 -16 -1 -31z" />
<glyph unicode="+" d="M430 208l586 346l-586 332v-678zM430 886l588 344l580 -328v680l-574 -340v688l-594 -348v-696zM1024 -118l574 346v674l-574 -346v-674z" />
<glyph unicode="," d="M4 152q0 56 21 105t59 87q36 36 86 58t106 22t106 -22t86 -58q38 -38 59 -87t21 -105t-21 -106t-59 -86q-36 -38 -86 -59t-106 -21t-106 21t-86 59q-38 36 -59 86t-21 106zM4 836q96 0 188 -18t178 -54t164 -88t144 -120q68 -68 120 -146t88 -164t54 -179t18 -189h392 q0 280 -106 526t-288 428q-182 184 -428 291t-524 107v-394zM4 1532q342 0 642 -130t522 -354q224 -226 354 -527t130 -643h392q0 422 -160 795t-438 651q-276 278 -648 440t-794 162v-394z" />
<glyph unicode="-" d="M134 -52q-2 -14 2 -27t12 -23t20 -15t26 -5h352q20 0 37 6t31 18q12 12 21 27t13 35l80 510q4 18 13 34t23 28q12 12 29 18t37 6h232q182 0 326 44t250 132q104 88 170 219t94 305q12 78 12 146t-10 128q-12 58 -36 109t-60 93q-40 46 -94 82t-122 60q-68 22 -148 35 t-174 13h-736q-20 0 -37 -7t-31 -19q-12 -12 -21 -27t-13 -35zM806 970l78 494q2 12 8 21t14 17q8 6 18 10t22 4h50q50 0 98 -1t90 -9q42 -6 77 -22t59 -44q14 -16 24 -38t14 -46q4 -26 4 -56t-6 -66q-16 -98 -58 -152t-102 -78q-62 -26 -133 -30t-145 -4h-112z" />
<glyph unicode="." d="M408 756q0 -30 18 -56q20 -26 54 -53t84 -57q40 -28 88 -47t98 -31q48 -12 93 -19t83 -11l-82 -82l-86 -86l-82 -82q-38 -40 -74 -75t-64 -63q-18 -18 -26 -40t-8 -44q0 -24 8 -46t26 -38l14 -14q18 -18 40 -27t44 -9t44 9t40 27l306 304l85 -85l81 -81l75 -75l63 -63 q18 -18 40 -27t44 -9q24 0 46 9t38 27l14 14q18 16 27 38t9 46q0 22 -9 44t-27 40l-388 388q38 4 83 11t93 19q48 14 96 32t88 46q50 30 84 57t54 53q18 26 18 56t-18 68q-12 22 -32 41t-48 25t-63 -2t-75 -40q-110 -86 -245 -101l-135 -15l-135 15t-245 101q-40 32 -75 40 t-63 2t-48 -25t-32 -41q-18 -38 -18 -68zM506 1406q0 -106 41 -201t111 -165t164 -111t202 -41t202 41t164 111t111 165t41 201q0 108 -41 202t-111 164q-70 72 -164 112t-202 40t-202 -40t-164 -112q-70 -70 -111 -164t-41 -202zM768 1406q0 54 21 100t55 80q34 36 81 56 t99 20t99 -20t81 -56q34 -34 55 -80t21 -100q0 -52 -21 -99t-55 -81t-81 -54t-99 -20t-99 20t-81 54t-55 81t-21 99z" />
<glyph unicode="1" d="M12 128l1192 -250v2048l-1192 -232v-1566zM344 894q0 40 5 77t15 71q8 32 23 62t33 54q18 26 40 45t48 31t54 19t58 7t57 -6t51 -18t45 -31t39 -43t32 -52t22 -60q10 -32 14 -67t4 -75t-4 -77t-14 -69q-10 -34 -24 -63t-32 -53q-20 -26 -42 -44t-46 -30q-24 -14 -52 -20 t-58 -6t-57 6t-51 18t-45 30t-41 42q-18 24 -32 52t-24 60q-8 32 -13 67t-5 73zM476 902q0 -26 2 -49t6 -43q6 -20 13 -38t17 -32t21 -26t23 -18q12 -8 26 -12t30 -4t31 4t27 10q12 8 23 19t21 25t17 32t11 38q6 20 8 43t2 49t-2 50t-8 44q-4 22 -11 40t-15 32 q-10 14 -21 26t-23 18q-12 8 -26 12t-30 4t-31 -4t-29 -12q-12 -8 -23 -19t-21 -27t-17 -33t-13 -37q-4 -22 -6 -44t-2 -48zM1278 396v544l128 -86q14 -10 27 -5l13 5q-16 -10 287 191l303 201v-736q0 -30 -9 -51t-23 -35q-16 -14 -35 -21t-41 -7h-650zM1278 1090l140 -88h9 h7l602 406q0 18 -7 33t-17 27q-12 10 -24 16t-22 6h-688v-400z" />
<glyph unicode="2" d="M-4 1572q0 -52 20 -99t56 -81q34 -34 80 -54t100 -20q52 0 99 20t81 54t54 81t20 99q0 54 -20 100t-54 80q-34 36 -81 56t-99 20q-54 0 -100 -20t-80 -56q-36 -34 -56 -80t-20 -100zM762 902q0 -54 20 -100t54 -82q34 -34 81 -54t99 -20t99 20t81 54q36 36 56 82t20 100 q0 52 -20 98t-56 82q-34 34 -81 54t-99 20t-99 -20t-81 -54q-34 -36 -54 -82t-20 -98zM762 1572q0 -52 20 -99t54 -81t81 -54t99 -20t99 20t81 54q36 34 56 81t20 99q0 54 -20 100t-56 80q-34 36 -81 56t-99 20t-99 -20t-81 -56q-34 -34 -54 -80t-20 -100zM1534 230 q0 -54 20 -100t56 -80q34 -36 80 -56t100 -20q52 0 99 20t81 56q34 34 54 80t20 100q0 52 -20 99t-54 81t-81 54t-99 20q-54 0 -100 -20t-80 -54q-36 -34 -56 -81t-20 -99zM1534 902q0 -54 20 -100t56 -82q34 -34 80 -54t100 -20q52 0 99 20t81 54q34 36 54 82t20 100 q0 52 -20 98t-54 82q-34 34 -81 54t-99 20q-54 0 -100 -20t-80 -54q-36 -36 -56 -82t-20 -98zM1534 1572q0 -52 20 -99t56 -81q34 -34 80 -54t100 -20q52 0 99 20t81 54t54 81t20 99q0 54 -20 100t-54 80q-34 36 -81 56t-99 20q-54 0 -100 -20t-80 -56q-36 -34 -56 -80 t-20 -100z" />
<glyph unicode="3" d="M0 814q0 -106 41 -200t111 -166q70 -70 164 -110t202 -40q58 0 114 12t106 36t94 58t80 76l118 -164l100 170q36 -42 80 -77t96 -61q50 -24 107 -38t117 -14q108 0 202 41t164 111q70 72 111 166t41 200q0 48 -8 92t-24 86q-14 40 -36 78t-48 72q6 22 16 45t20 45 q12 24 25 44t29 34h-340q-4 0 -8 1t-10 3q-6 10 -37 42t-105 66q-72 32 -195 58t-311 26q-416 0 -535 -98l-119 -98h-354q18 -14 32 -37t26 -47q12 -26 22 -52t16 -48q-24 -32 -43 -69t-33 -75q-14 -40 -21 -82t-7 -86zM102 814q0 86 32 162t90 132q56 56 132 89t162 33 t161 -33t131 -89q58 -56 90 -132t32 -162t-32 -162t-88 -132q-58 -56 -133 -89t-161 -33t-162 33t-132 89q-58 56 -90 132t-32 162zM268 814q0 -24 5 -48t15 -48q8 -22 22 -42t32 -38t38 -31t42 -23q22 -8 46 -13t50 -5q50 0 96 19t78 53q34 34 54 79t20 97t-20 97t-54 79 q-32 34 -78 53t-96 19q-26 0 -50 -5t-46 -13q-22 -10 -42 -23t-38 -31t-32 -38t-22 -42q-10 -24 -15 -48t-5 -48zM344 814q0 18 4 34t10 32t16 30t22 26t26 21t30 17q14 6 31 9t35 3q34 0 66 -13t56 -37q22 -24 36 -55t14 -67t-14 -67t-36 -55q-24 -24 -56 -37t-66 -13 q-18 0 -35 3t-31 9q-16 8 -30 17t-26 21t-22 26t-16 30t-10 32t-4 34zM434 814q0 18 6 33t18 27q12 10 27 17t33 7q16 0 32 -7t26 -17q12 -12 19 -27t7 -33t-7 -33t-19 -27q-10 -10 -26 -17t-32 -7q-18 0 -33 7t-27 17q-12 12 -18 27t-6 33zM524 1302l111 76t377 76h34 q266 0 377 -76l111 -76l-205 -27q-205 -27 -299 -375q-96 348 -301 375zM1116 814q0 86 32 162t88 132q58 56 133 89t161 33t162 -33t132 -89q58 -56 90 -132t32 -162t-32 -162t-90 -132q-56 -56 -132 -89t-162 -33t-161 33t-133 89q-56 56 -88 132t-32 162zM1282 814 q0 -24 5 -48t15 -48q8 -22 22 -42t32 -38q16 -18 37 -31t43 -23q22 -8 46 -13t48 -5q52 0 97 19t79 53t54 79t20 97t-20 97t-54 79t-79 53t-97 19q-24 0 -48 -5t-46 -13q-22 -10 -43 -23t-37 -31q-18 -18 -32 -38t-22 -42q-10 -24 -15 -48t-5 -48zM1358 814q0 18 4 34t10 32 t15 30t21 26q14 12 28 21t28 17q16 6 33 9t33 3q36 0 68 -13t54 -37q24 -24 38 -55t14 -67t-14 -67t-38 -55q-22 -24 -54 -37t-68 -13q-16 0 -33 3t-33 9q-14 8 -28 17t-28 21q-12 12 -21 26t-15 30t-10 32t-4 34zM1446 814q0 18 7 33t19 27q10 10 26 17t32 7q18 0 33 -7 t27 -17q12 -12 18 -27t6 -33t-6 -33t-18 -27q-12 -10 -27 -17t-33 -7q-16 0 -32 7t-26 17q-12 12 -19 27t-7 33z" />
<glyph unicode="4" d="M-2 128h210l234 358h1164l234 -358h210l-1026 1546zM576 664l448 676l448 -676h-896z" />
<glyph unicode="5" d="M368 1188q0 -72 10 -140t28 -130q20 -62 47 -118t61 -104q42 -56 93 -98t109 -70q60 -30 127 -44t141 -14q76 0 148 16t134 46q64 30 117 73t91 97v-214q0 -116 -27 -202t-83 -142q-58 -56 -145 -84t-205 -28q-100 0 -177 21t-127 63q-52 42 -80 104t-32 142l-2 48h-144 l2 -46q4 -116 43 -206t111 -152q72 -64 176 -96t238 -32q150 0 265 39t193 117t118 192t40 262v1396h-164v-204q-38 58 -89 103t-111 77q-58 30 -126 46t-140 16q-144 0 -262 -53t-202 -149t-130 -232t-46 -300zM532 1188q0 100 26 204t84 188q60 84 155 137t231 53 q48 0 92 -8t84 -24q40 -18 77 -42t67 -54q40 -42 71 -92t53 -108q20 -58 31 -122t11 -132q0 -106 -30 -207t-92 -181t-158 -129t-228 -49q-108 0 -196 40t-150 114t-95 179t-33 233z" />
<glyph unicode="6" d="M0 772q-2 14 1 28t11 28q12 24 34 39t48 19q24 6 50 1t48 -23q12 -10 21 -23t11 -31q0 -6 3 -8t9 -2l734 10q10 0 11 -1t-1 -9q-2 -10 -2 -19t2 -17q0 -8 -2 -9t-8 -1l-726 8q-8 0 -15 -1t-11 -7q-6 -4 -10 -12t-10 -14t-12 -11t-14 -9q-6 -4 -14 -8t-16 -6 q-14 -4 -30 -4t-32 2q-16 4 -30 12t-26 18q-10 12 -16 24t-8 26zM714 1054q2 -10 7 -19t11 -15t14 -10t16 -6t16 -1t16 5q4 0 8 3t8 3t7 -3l5 -5l176 -136q4 -4 6 -3t4 5q6 8 11 15t13 13q6 6 -2 11t-12 7l-168 120q-8 4 -15 9t-1 17v3v1q-2 22 -16 36t-32 18q-18 2 -36 -5 t-30 -25q-4 -10 -5 -20t-1 -18zM776 580q0 22 0 8t0 -8zM776 580q-2 -18 7 -34t21 -26q14 -10 32 -14t34 0q14 4 25 12t19 20q8 10 11 24t1 28q-2 4 0 6l4 4q12 6 25 14t25 14q12 8 24 15t24 15q6 2 3 6t-7 6q-4 6 -9 11t-7 11q-4 4 -6 4t-6 -2q-10 -8 -21 -15t-23 -13 q-10 -8 -21 -14t-21 -14q-4 -2 -7 -2t-7 2q-8 8 -18 12t-20 4q-10 2 -20 0t-20 -8q-10 -4 -18 -11t-12 -15q-6 -10 -9 -20t-3 -20zM1022 784q0 -18 5 -36t15 -34q10 -14 24 -25t28 -19q16 -8 34 -12t34 -4q-2 0 0 -1t10 -1l14 2h-4q22 2 44 9t42 21q18 12 33 30t23 40 q6 20 6 41t-6 39q-8 20 -20 37t-30 29q-28 18 -60 23t-64 -1t-61 -24t-45 -46q-10 -16 -16 -33t-6 -35zM1083 1215q-3 -25 3 -47q8 -24 25 -42t45 -28q4 0 6 -3t2 -9l-8 -114q-2 -6 1 -8t9 -2q10 2 19 2t17 -2q6 0 8 2t2 8q0 14 -1 29t-1 29t-1 28t-1 30q0 10 9 12t17 6 t16 10t14 12q6 8 11 16t7 16q4 8 6 17t2 19q0 16 -5 32t-13 30q-10 12 -23 22t-29 16t-32 6t-32 -4q-14 -4 -28 -13t-24 -23q-18 -22 -21 -47zM1298 657q0 -1 4 -3q8 -6 16 -11t18 -9q6 -4 5 -10t-1 -12q0 -4 1 -10t3 -12q6 -10 16 -17t22 -9q10 0 20 3t16 9q8 8 12 17t4 19 q0 12 -4 22t-12 16t-17 9t-21 1t-20 1t-16 11l-3 3l-3 3q-4 6 -8 6t-10 -6q-4 -4 -9 -8t-9 -8t-4 -5zM1323 912q5 -4 9 -8q4 -6 8 -10t6 -10q4 -6 9 -3t9 5l242 156q4 0 9 -3t7 -5q10 -6 21 -8t21 0q12 0 22 4t18 10q22 18 27 41t-3 43q-6 22 -25 37t-45 15q-18 0 -33 -8 t-25 -20t-14 -28t0 -34q0 -6 -1 -9t-7 -5q-32 -18 -64 -37t-64 -37q-30 -20 -62 -39t-62 -39q-8 -4 -3 -8zM1370 757q2 -1 6 -1l478 8q8 -2 11 -13t7 -17q4 -8 11 -15t15 -13q6 -6 15 -10t17 -6q10 -2 19 -3t19 1q16 2 31 10t25 22q12 12 18 28t6 32q0 18 -6 34t-16 30 q-12 12 -26 20t-30 12q-18 2 -35 -2t-33 -12q-14 -8 -24 -22t-16 -32q0 -4 -3 -6t-7 -2l-476 6q-4 -2 -3 -8t1 -10q0 -6 -1 -12t-3 -12t0 -7zM1658 1176h4h2h-2h-4z" />
<glyph unicode="7" d="M77 1720q-1 12 1 20t13 24t23 24t28 14t38 14q28 14 87 36t123 42q64 18 121 28t83 -4t46 -49t36 -83t31 -103t33 -107q14 -48 28 -97t28 -95q14 -48 27 -93t27 -89l240 -764q14 -8 26 -2t24 10q66 20 134 41t138 43q68 22 139 45t145 45q28 10 55 18t51 14t44 6t34 -10 q10 -6 18 -16t14 -22t10 -25t8 -25t5 -26t5 -30q2 -10 7 -19t7 -21q0 -4 -3 -7l-3 -3q4 -14 7 -26t7 -22q4 -12 6 -23t4 -25q0 -4 -1 -15t-3 -23q0 -10 -5 -29t-13 -29q-2 -2 -7 -2t-7 -2q0 -2 1 -4t1 -4q-2 0 -7 -1t-7 -3q-4 -14 -38 -29t-78 -27q-42 -14 -85 -25t-65 -17 l-636 -200l-93 -31t-85 -25q-38 -10 -69 -14t-53 4q-30 12 -57 59t-49 111q-24 64 -44 134t-38 128q-28 92 -53 177t-51 167q-24 82 -50 162t-56 164q-4 8 -6 17t-6 17q-2 4 -6 7t-6 11q-10 24 -17 52t-13 56q-8 28 -17 56t-21 52q-4 6 -8 9t-6 9q-4 14 -9 28t-9 30 q-6 16 -11 32t-9 32q-10 30 -20 57t-20 53q-12 28 -22 58t-20 68q-4 18 -9 34t-9 32q-2 14 -3 26z" />
<glyph unicode="8" d="M26 920q0 -20 16 -42q26 -32 66 -69t94 -75q52 -38 118 -74t146 -68q-84 -288 -9 -457t199 -227q122 -58 238 -9t110 197q0 -6 1 129t1 257q16 -4 29 -7t25 -7q0 -122 1 -250t1 -122q-6 -148 110 -197t238 9q124 58 199 227t-9 457q78 32 144 68t118 74t92 75t66 69 q14 22 14 42t-10 32t-28 13t-42 -15q-6 -4 -10 -8t-18 -8v792q0 42 -13 78t-37 62q-22 28 -54 44t-70 16h-1436q-38 0 -73 -16t-61 -44q-28 -26 -44 -62t-16 -78v-794q0 4 -7 9t-13 9q-22 16 -40 15t-28 -13q-8 -12 -8 -32zM246 868v768q0 52 7 88t25 58q16 22 47 31t79 9 h1270q46 0 75 -10t45 -34q16 -22 22 -57t6 -85v-762q-100 -56 -193 -82t-175 -36q-82 -8 -150 -6t-116 4q-36 2 -60 -4t-40 -20q-14 -12 -22 -31t-8 -43q-10 6 -18 13t-16 13q-8 8 -17 16t-17 16q-4 2 -6 5t-6 5q-8 8 -18 14t-22 10t-28 6t-36 0q-48 -2 -118 -4t-152 6 t-174 33t-184 79zM516 1078q0 -48 19 -89t51 -71t76 -48t94 -18t94 18t76 48t51 71t19 89q0 46 -19 87t-51 71q-32 32 -76 49t-94 17t-94 -17t-76 -49q-32 -30 -51 -71t-19 -87zM1084 1080q0 -48 19 -89t51 -71q32 -32 77 -49t95 -17t94 17t76 49q34 30 53 71t19 89 q0 46 -19 88t-53 72q-32 30 -76 48t-94 18t-95 -18t-77 -48t-51 -72t-19 -88z" />
<glyph unicode="9" d="M20 348q2 -18 14 -24l24 -12l224 -104t222 -104l224 -104l224 -104q18 -8 35 -13t35 -5t36 4t36 12q112 52 224 105t226 105q112 52 224 105t224 105q6 2 11 4t9 6q16 10 16 23t-16 25l-8 4l-8 4q-20 10 -40 19t-40 19q-20 8 -40 18t-40 18q-16 8 -34 12t-34 4 q-18 0 -36 -4t-34 -12q-76 -36 -151 -71t-151 -69q-76 -36 -151 -71t-151 -71q-18 -8 -35 -12t-35 -4t-35 4t-35 12q-74 36 -149 71t-151 69q-76 36 -151 71t-149 69q-18 10 -37 14t-37 4t-36 -4t-36 -12q-18 -10 -37 -18t-37 -18q-20 -8 -38 -17t-38 -17q-12 -6 -25 -13 t-13 -23zM20 900q2 -18 14 -24l24 -12l224 -104t222 -104l224 -104l224 -104q18 -8 35 -13t35 -5t36 4t36 12q112 52 224 105t226 105q112 52 224 105t224 105q6 2 11 4t9 6q16 10 16 23t-16 25l-8 4l-8 4q-20 10 -40 19t-40 19q-20 8 -40 18t-40 18q-16 8 -34 12t-34 4 q-18 0 -36 -4t-34 -12q-76 -36 -151 -71t-151 -69q-76 -36 -151 -71t-151 -71q-18 -8 -35 -12t-35 -4t-35 4t-35 12q-74 36 -149 71t-151 69q-76 36 -151 71t-149 71q-18 8 -37 12t-37 4t-36 -4t-36 -12q-18 -10 -37 -18t-37 -18q-20 -8 -38 -17t-38 -17q-12 -6 -25 -13 t-13 -23zM20 1455q0 -11 12 -21q6 -4 14 -8l16 -8q110 -52 222 -104t222 -104q112 -52 223 -104t223 -104q18 -8 36 -12t36 -4t36 4t36 12q110 52 222 104l224 104t223 104t223 104q8 4 15 8t15 10q10 8 10 19t-10 19q-8 6 -15 10t-15 8q-112 52 -223 103t-221 103 q-112 52 -223 104t-221 104q-20 8 -38 13t-38 5q-18 0 -37 -4t-37 -14q-112 -52 -223 -104t-223 -104q-110 -52 -222 -104t-222 -104q-8 -2 -15 -6t-13 -8q-12 -10 -12 -21z" />
<glyph unicode=":" d="M0 84l424 58q64 -54 137 -98t155 -74q80 -32 167 -48t179 -16q204 0 384 78t314 214q132 134 210 316t78 388t-78 387t-210 315q-134 136 -314 214t-384 78q-206 0 -385 -78t-313 -214q-134 -134 -212 -315t-78 -387q0 -56 6 -110t18 -106q12 -50 28 -100t38 -98z M676 410v982h372q132 0 234 -35t172 -99t107 -154t37 -198v-2q0 -108 -37 -199t-109 -155q-70 -66 -173 -103t-235 -37h-368zM942 656h110q62 0 113 15t87 47q38 30 59 76t21 106v2q0 60 -21 106t-59 76q-36 32 -87 47t-113 15h-110v-490z" />
<glyph unicode=";" d="M0 1412q0 -30 7 -58t17 -54q12 -26 24 -51t24 -49l32 -64t34 -64q16 -32 33 -63t35 -61q2 -2 4 -5t4 -5q4 -8 8 -15t8 -13q2 -4 4 -7t4 -7q4 -6 8 -13t10 -15q0 -2 2 -5t4 -5q6 -10 12 -19t12 -19h1h1q6 -10 12 -19t12 -19q2 -2 4 -5t4 -5q4 -8 9 -14t9 -12q2 -4 5 -7 t5 -7q4 -6 9 -13t9 -13q2 -2 4 -5t4 -5q8 -10 15 -19t13 -19q48 -58 99 -114t115 -102t145 -77t183 -43q34 -2 72 -5t72 -1q36 2 63 11t39 29q14 24 16 61t4 73q4 36 16 64t44 32q24 4 45 -8t41 -32q18 -20 34 -42t30 -36q22 -24 47 -50t53 -48q30 -22 63 -39t71 -23h5h5 q34 14 97 11t125 -3t109 11t53 55q2 14 -5 33t-19 37q-10 18 -22 35t-22 27q-22 30 -44 54l-44 48t-46 47t-52 49l-28 24t-26 26q-10 14 -19 29t-9 31q-2 22 7 43t23 41q12 20 27 38t25 32q2 4 5 7l7 7q0 2 2 4l2 2q2 4 4 6l4 4q0 2 2 4l4 4q0 2 1 3l3 3t4 5t4 5 q20 24 40 49t38 49q20 26 39 53t37 57q6 12 18 34t22 46q10 26 15 50t-3 38q-8 18 -33 25t-57 9q-32 0 -65 -2t-59 -2q-32 0 -65 2t-63 4q-32 0 -59 -2t-49 -10q-14 -4 -26 -20t-22 -38q-8 -20 -17 -42t-17 -38q-12 -26 -23 -49t-21 -45q-12 -20 -23 -40t-23 -40q0 -2 -2 -5 t-4 -7h-1t-1 -2q-2 -2 -3 -5t-3 -5l-1 -1l-1 -1q-4 -6 -7 -11t-7 -9v-2l-2 -2q0 -2 -2 -4t-2 -4q-2 0 -3 -2t-3 -4q0 -2 -2 -4l-2 -2q-2 -4 -4 -6t-2 -4l-3 -3t-1 -3q-4 -2 -6 -6t-6 -8q-10 -14 -22 -30t-24 -30q-14 -14 -29 -24t-35 -12l-3 3t-3 1l-1 1l-1 1l-1 1l-3 3h-2 q0 2 -1 3l-1 1l-1 1l-1 1l-1 1l-1 1l-2 2v2q-2 0 -2 1v1q-2 0 -2 1v1l-2 2v2q-2 0 -2 1v1l-1 1t-1 3l-1 1l-1 1l-1 2l-1 2v1v1q-2 2 -2 3t-2 3v1v1l-1 2l-1 2v2v2l-1 1t-1 3v1v1q0 2 -1 3l-1 1v2v2v1v3l-1 1l-1 1v3v3v1v1q0 2 -1 3l-1 1v2v2v2v2v2v2v2v4v2q-2 2 -2 4v4v4v4 v1v1q0 2 -1 3t-1 3v1v1v3v3l1 1l1 1v3v3v1v3v2v2v3v1v3v3v1v1q2 2 2 4v4v2v14v14v3v1q2 8 2 16v14q2 34 6 71t4 73q2 36 -2 69t-18 57t-44 35t-68 15t-79 3t-77 -1q-44 0 -82 -2t-70 -10t-56 -23t-36 -41q16 -10 31 -16t29 -12t25 -15t19 -25q10 -16 15 -40t7 -54t3 -61 t1 -63q0 -2 -1 -5t-1 -7q0 -28 -2 -60t-6 -62q-6 -30 -16 -50t-28 -24t-34 6t-32 26q-14 16 -27 35t-21 33q-4 4 -7 9t-7 9q0 2 -1 3l-3 3q-2 4 -4 7t-4 7q-2 0 -3 2t-1 4q-2 2 -4 6t-6 8l-1 1t-1 3q-2 4 -5 8t-7 10q-14 22 -27 44t-27 46l-25 50l-27 54q-8 18 -17 39 t-19 41q-10 18 -20 33t-20 21q-18 8 -43 11t-53 3q-30 0 -58 -2t-52 -2q-28 0 -55 1t-51 1q-26 -2 -48 -7t-38 -19z" />
<glyph unicode="=" d="M0 -104v260v260v258t2 260q0 68 10 134t30 130t48 125t66 119q60 94 132 170t158 134q84 60 181 100t207 62q34 6 68 10t66 6q34 2 68 1t68 -3q86 -6 167 -26t157 -52t146 -77t134 -103q54 -48 100 -101t82 -113q38 -58 67 -123t49 -133q8 -26 14 -51t12 -51q4 -26 7 -52 t7 -52q4 -54 3 -106t-7 -104t-18 -103t-28 -101q-42 -114 -100 -211t-134 -175t-171 -140t-207 -106q-44 -16 -89 -29t-91 -21t-92 -12t-94 -4q-54 2 -108 2h-108q-56 0 -110 -1t-108 -1q-20 0 -24 4t-4 24v252v252t1 252t1 254q0 80 29 155t81 135q50 60 120 102t150 56 q96 16 186 -3t162 -67q74 -50 126 -126t72 -170q22 -96 1 -189t-73 -169t-131 -129t-173 -69q-44 -6 -86 -6t-82 6q-42 8 -81 23t-77 37q-2 2 -6 4t-10 4v-9v-9v-77v-77q0 -40 -1 -78t-1 -78q0 -10 5 -16t15 -8q108 -32 211 -38t199 16q98 22 188 70t176 124q52 46 93 99 t71 111t50 122t30 134q20 144 -12 282t-106 252q-76 116 -188 201t-254 127q-162 46 -321 23t-293 -101q-132 -78 -229 -206t-137 -292q-4 -22 -8 -43t-6 -43q-4 -22 -5 -44t-1 -42q0 -126 -1 -252t-1 -250q0 -126 1 -252t1 -250q0 -20 -4 -24t-22 -4q-24 0 -49 1t-49 1 t-49 -1t-49 -1q-12 0 -16 4t-4 16z" />
<glyph unicode="@" d="M0 218h2048v1228l-958 -782q-6 -6 -14 -11t-16 -7q-10 -4 -19 -5t-17 -1t-17 1t-19 5q-8 2 -16 7t-14 11l-958 782v-1228zM158 1584l810 -662q12 -10 26 -16t30 -6t30 6t26 16l810 662h-1732z" />
<glyph unicode="A" d="M0 498q0 -128 50 -241t134 -197t191 -133t219 -49h824q124 0 239 49t201 135q88 84 139 199t51 243v492q0 34 -7 62t-23 48t-43 30t-69 10h-90q-34 0 -59 10t-43 28q-16 16 -25 38t-9 46v58q0 110 -55 217t-141 193q-86 84 -193 137t-209 53h-434q-136 0 -254 -51 t-206 -139t-138 -206t-50 -254v-778zM530 522q0 24 9 45t25 37q18 14 39 22t45 8h740q24 0 46 -8t38 -22q16 -16 25 -37t9 -45t-9 -45t-25 -35q-16 -16 -38 -24t-46 -8h-740q-24 0 -46 8t-38 24q-16 14 -25 35t-9 45zM530 1270q0 24 9 46t25 40q18 16 39 26t45 10h372 q26 0 47 -10t37 -26q16 -18 26 -40t10 -46t-10 -47t-26 -39q-16 -18 -38 -28t-46 -10h-372q-24 0 -46 10t-38 28q-16 16 -25 39t-9 47z" />
<glyph unicode="B" d="M-4 1392q8 76 30 145t54 135q34 66 76 129t88 125h1804v-1416q-130 -80 -272 -129t-288 -71q-119 -18 -240 -18q-27 0 -55 1q-149 5 -293 31q-72 -36 -141 -80t-137 -90q-66 -46 -134 -91t-138 -85q4 54 9 109t13 109q6 56 12 111t12 109q0 22 3 47t3 47q-2 24 -11 44 t-33 34q-90 70 -162 162t-122 196q-48 104 -69 217q-13 72 -13 145q0 42 4 84zM404 1248q-1 -13 -1 -27q0 -50 12 -99q15 -62 45 -118q30 -54 72 -103t92 -87q104 -80 230 -124t258 -50q29 -2 57 -2q103 0 206 23q131 29 247 93q62 36 118 85t98 109t67 130t27 144v14 q0 59 -15 116q-17 64 -49 120q-32 58 -77 107t-99 87q-58 44 -125 75t-137 51q-72 20 -145 28q-58 6 -117 6h-30q-80 -2 -161 -18t-157 -46t-144 -76t-124 -106q-32 -32 -59 -71t-47 -81t-31 -87t-11 -93z" />
<glyph unicode="C" d="M0 918q0 -32 8 -60t24 -52t38 -42t48 -30q-2 -12 -4 -23t-4 -23q0 -12 -1 -24t-1 -24q0 -122 71 -231t195 -189q124 -82 290 -128t356 -46q188 0 354 46t290 128q124 80 196 189t72 231q0 12 -1 23t-3 23q0 12 -2 23t-4 21q28 12 51 30t39 44q18 24 27 53t9 61 q0 42 -15 78t-43 64t-64 43t-78 15q-24 0 -46 -5t-42 -15t-37 -24t-31 -32q-60 44 -132 78t-152 60q-82 24 -171 38t-183 18l150 438l370 -86q4 -2 7 -2h7q2 -32 14 -60t34 -48q22 -22 50 -34t60 -12q34 0 63 13t49 35q22 20 35 49t13 63q0 32 -13 61t-35 51q-20 22 -49 34 t-63 12q-24 0 -46 -7t-40 -19q-20 -12 -34 -30t-24 -38q-2 2 -5 3t-7 3l-402 94q-5 1 -10 1q-9 0 -17 -4q-13 -7 -17 -21l-170 -498q-92 -2 -178 -16t-166 -40q-78 -24 -148 -57t-128 -75q-14 18 -31 31t-37 23q-20 8 -41 13t-45 5q-42 0 -78 -15t-64 -43t-43 -64t-15 -78z M554 756q0 30 12 57t32 47q22 22 49 34t57 12t57 -12t47 -34q20 -20 31 -47t11 -57t-11 -57t-31 -47t-47 -31t-57 -11t-57 11t-49 31q-20 20 -32 47t-12 57zM686 366q0 10 6 18q8 6 17 6t17 -6q22 -22 51 -39t67 -27q36 -12 81 -17t97 -5q54 0 99 5t83 17q38 10 67 27t51 39 q8 6 17 6t17 -6q6 -8 6 -18t-6 -16q-26 -26 -59 -45t-75 -31q-40 -14 -90 -20t-106 -6q-60 0 -110 6t-90 20q-42 12 -75 31t-59 45q-6 6 -6 16zM1198 756q0 30 12 57t32 49q20 20 47 32t57 12t57 -12t47 -32q20 -22 32 -49t12 -57t-12 -57t-32 -47t-47 -31t-57 -11t-57 11 t-47 31t-32 47t-12 57z" />
<glyph unicode="D" d="M-2 894q0 -212 81 -399t219 -325q140 -140 326 -220t398 -80t398 80t326 220q138 138 219 325t81 399q0 210 -81 397t-219 325q-140 140 -326 221t-398 81t-398 -81t-326 -221q-138 -138 -219 -325t-81 -397zM148 894v13v13q14 0 95 1t205 11q124 12 279 38t319 74 q10 -18 19 -37t19 -37q8 -18 17 -37t17 -37q-10 -2 -18 -5t-16 -5q-170 -56 -299 -148t-219 -184q-90 -90 -138 -162l-56 -84q-52 58 -94 125t-70 141q-30 74 -45 154t-15 166zM166 1072q22 102 65 194t107 170q62 80 141 143t171 105q8 -12 40 -56t76 -112q46 -68 100 -154 t108 -184q-154 -40 -294 -62t-248 -32q-110 -10 -181 -11t-85 -1zM486 204q4 12 43 74t121 146q80 84 208 172t314 154h2t2 2q48 -120 81 -228t55 -196q22 -86 34 -149t18 -91q-40 -16 -81 -29t-85 -23q-42 -8 -86 -13t-90 -5q-76 0 -148 13t-140 37t-131 58t-117 78z M816 1744q26 6 51 10t51 8l52 4t52 2q84 0 163 -15t153 -45q72 -28 139 -69t125 -91q-6 -10 -35 -44t-83 -80q-56 -46 -140 -97t-200 -95q-54 98 -109 186t-99 156q-46 68 -78 113t-42 57zM1210 1102q122 48 211 105t149 107q58 50 90 86t38 46q46 -56 83 -119t61 -131 q26 -70 40 -144t14 -150q-10 2 -66 12t-140 18t-189 10h-26q-92 0 -187 -12q-6 10 -10 22t-10 22q-6 16 -13 32t-15 32q-6 16 -14 32zM1340 792q92 14 176 14h21q93 -2 167 -14q74 -10 122 -22t60 -16q-16 -92 -48 -176t-80 -158q-50 -76 -112 -139t-136 -113q-2 20 -13 76 t-31 138q-22 82 -52 187t-74 223z" />
<glyph unicode="E" d="M0 576v144v140h350v-280q0 -22 9 -42t23 -34t34 -23t42 -9q24 0 43 9t35 23q14 14 23 34t9 42v662q2 92 39 172t99 140t144 95t174 35q94 0 176 -35t142 -95q62 -60 99 -141t39 -173v-146l-208 -62l-140 66v126q0 22 -8 42t-24 34q-14 14 -34 23t-42 9t-42 -9t-34 -23 q-16 -14 -24 -34t-8 -42v-654q-2 -94 -38 -176t-98 -142q-62 -62 -145 -97t-177 -35q-96 0 -179 36t-145 98t-98 145t-36 177zM1132 572v286l140 -64l208 62v-288q0 -22 9 -42t23 -36q16 -14 35 -22t43 -8q22 0 42 8t34 22q14 16 23 36t9 42v292h350v-140v-144 q0 -94 -36 -177t-98 -145t-146 -98t-178 -36t-177 35t-145 97t-98 144t-38 176z" />
<glyph unicode="F" d="M0 532v696h328v288h204v-984h-532zM204 696h124v368h-124v-368zM614 532v696h206v-696h-206zM614 1310h206v206h-206v-206zM902 286v164h326v82h-326v696h532v-942h-532zM1106 696h122v368h-122v-368zM1516 286v164h328v82h-328v696h532v-942h-532zM1720 696h124v368 h-124v-368z" />
<glyph unicode="G" d="M132 866q-5 -48 -5 -95q0 -126 35 -245q46 -166 155 -306t271 -230q160 -90 336 -108q50 -5 98 -5q124 0 242 33q164 48 305 156t231 268q102 186 116 443q4 69 4 137q0 185 -28 360q-36 240 -105 421t-131 215q-22 12 -64 15q-11 1 -24 1q-34 0 -76 -6q-58 -6 -127 -22 t-147 -40q-136 -92 -258 -208t-214 -264q-94 -146 -151 -325t-65 -399q-4 -10 -23 -4t-25 10q-36 70 -61 143t-33 155q-4 39 -4 79q0 46 5 94q9 91 39 197q12 20 -13 38t-31 10q-6 -6 -22 -24t-36 -42q-22 -24 -44 -54t-40 -62q-92 -160 -110 -336z" />
<glyph unicode="H" d="M0 286v1270h594q22 0 44 -2t42 -6q20 -2 40 -6t38 -8t36 -10t32 -14q16 -8 31 -17t29 -17l24 -20t22 -22t19 -26t17 -30q6 -14 12 -31t10 -35q2 -18 4 -39t2 -43q0 -24 -2 -45t-8 -41t-14 -38t-18 -34q-12 -16 -25 -31t-29 -27q-16 -14 -35 -25t-41 -21q30 -8 55 -20 t47 -26q22 -16 40 -33t32 -39q14 -20 25 -43t17 -49q8 -26 11 -53t3 -57q0 -24 -2 -46t-6 -42q-4 -22 -11 -41t-17 -35q-10 -18 -20 -34t-24 -30q-12 -14 -26 -26t-30 -24l-32 -20t-34 -18t-37 -15t-39 -11q-20 -6 -41 -9t-41 -7q-20 -2 -41 -3t-43 -1h-610zM266 492h308 q10 0 20 1t20 1q8 2 18 4t18 4q10 2 19 5t17 5l16 8t14 8q8 6 14 11t12 13q6 6 11 13t9 15t7 18t5 20t3 22t1 24q0 24 -3 45t-11 37q-6 16 -16 30t-24 24t-30 18t-34 12q-18 6 -38 8t-44 2h-312v-348zM266 1044h292q18 0 35 2t33 4q14 4 28 10t26 14t21 19t15 25t9 30t3 36 q0 10 -1 20t-3 20q-2 8 -5 16t-7 16q-8 14 -19 25t-23 19q-14 8 -29 14t-33 10q-8 0 -17 2t-19 2q-8 2 -17 3t-19 1h-270v-288zM1136 738q0 26 2 50t8 48q4 24 10 47t14 45t19 43t23 41q12 18 25 36t29 34t33 30t35 28q18 12 38 23t42 21q22 8 44 15t46 13q24 4 49 6t51 2 q28 0 56 -2t52 -8q26 -6 50 -14t44 -20q22 -12 42 -25t38 -27q18 -16 34 -33t28 -35q14 -20 26 -40t22 -44q10 -22 18 -45t16 -47q6 -24 10 -50t6 -54q2 -26 2 -52t-2 -48h-658q0 -24 5 -49t13 -47q8 -24 19 -45t25 -33q14 -14 31 -24t39 -18q20 -6 43 -10t49 -4q20 0 37 3 t33 9q18 4 33 12t29 18q12 10 23 18t21 18q8 10 13 22t9 28h220q-12 -46 -29 -83t-37 -65q-20 -30 -44 -52t-52 -40t-58 -32t-62 -24q-34 -10 -70 -15t-74 -5q-28 0 -53 2t-49 6q-24 6 -47 12t-45 14q-22 10 -42 20t-38 22q-20 14 -36 28t-32 30q-14 16 -28 33t-24 35 q-12 20 -22 40t-18 44q-8 22 -15 45t-11 47t-6 50t-2 52zM1332 1332v122h512v-122h-512zM1388 840h408q-2 22 -7 43t-13 39t-17 33t-21 27q-10 12 -25 22t-33 16t-39 9t-45 3q-14 0 -28 -1t-26 -5q-12 -2 -24 -6t-22 -8q-10 -6 -18 -12l-16 -12t-15 -13t-13 -15 q-6 -6 -12 -14t-10 -16t-7 -16t-5 -16q-6 -16 -8 -29t-4 -29z" />
<glyph unicode="I" d="M0 -122v1024h1024v1024h1024v-1024h-1024v-1024h-1024z" />
<glyph unicode="J" d="M0 522q2 -46 12 -92h245h241h241h245v150v146v145v145h30h32q16 2 32 1t30 -1q40 -2 78 -7t78 -11q38 -8 75 -19t73 -27q48 -22 88 -50t72 -64t55 -79t37 -95q2 -6 4 -18t4 -12h-85h-83h-84h-88v10v16q0 30 -1 59t-1 59v60t2 60q0 12 -5 17t-17 9q-18 2 -36 6t-36 6 q-18 4 -37 8t-37 6q-26 4 -55 5t-45 1v-134v-134v-131v-127h245h241h243h245q0 16 2 27t4 21q0 10 2 19t2 21v19q0 34 -5 67q-7 42 -23 80q-14 40 -37 76t-51 70q-36 42 -76 78t-84 66q-46 30 -94 54t-98 46q-66 26 -133 45t-137 31q-68 14 -138 20t-140 6h-22h-26v48v48v48 v48q-32 -2 -63 -6t-63 -6q-34 -4 -68 -7t-74 -7v-14v-10v-38v-38q0 -18 1 -37t1 -37q0 -12 -4 -17t-16 -9q-52 -10 -101 -24t-97 -32q-50 -18 -96 -40t-90 -50q-36 -20 -68 -44t-62 -50q-28 -26 -55 -56t-49 -62q-28 -42 -46 -85t-26 -87q-8 -37 -8 -75v-15zM378 634 q4 54 34 112t78 108q46 48 106 83t120 41v-84v-84v-86v-90h-88h-84h-83h-83z" />
<glyph unicode="K" d="M170 -122l854 2048l854 -2048h-752v338l346 174l-24 52l-322 -162v158l200 106l-28 54l-172 -90v230h-204v-354l-172 122l-32 -50l204 -142v-436h-752z" />
<glyph unicode="L" d="M80 -6v1820q0 22 5 39t13 31t19 24t25 18h21t23 -2q12 0 25 -3t25 -11l1242 -682l426 -234q32 -18 48 -41t16 -45q0 -24 -16 -47t-48 -39l-424 -228l-1244 -690q-12 -6 -25 -11t-25 -7q-10 -3 -19 -3h-5q-12 1 -22 3q-12 6 -24 15t-18 23q-8 14 -13 31t-5 39z" />
<glyph unicode="M" d="M284 440q0 26 1 50t1 50q2 12 8 25t14 23l196 232t194 230q98 116 196 231t196 231q2 2 5 6t7 8q-12 -2 -25 -4t-23 -4l-24 -4t-22 -4l-68 -8t-70 -6q-23 -1 -45 -1h-23q-34 1 -68 5q-16 2 -31 4t-29 6q-16 4 -30 9t-28 13q-20 10 -33 20t-19 24q-8 12 -11 29t-1 39 q2 18 4 35t6 33q6 18 12 34t14 30l20 32l20 32l20 32t22 30q6 10 13 16t15 6q4 1 8 1t9 -1q9 -2 19 -8q18 -10 36 -18t36 -14q20 -6 39 -11t39 -9q38 -8 77 -13t79 -7q38 -2 78 -3h26q26 0 52 1q54 0 106 3t104 9t103 15t103 19q4 0 9 1t9 1q16 0 24 -8t6 -24q-2 -20 -5 -40 t-5 -40l-4 -40t-6 -40q0 -10 -5 -20t-11 -18q-110 -126 -221 -254t-221 -256q-112 -128 -222 -255t-222 -255q-8 -10 -13 -18t-7 -16q-4 -8 -4 -18t2 -24q14 0 28 -1t28 -3q34 -4 65 -12t63 -20q30 -14 59 -29t57 -31q24 -14 47 -29t47 -29t48 -27t48 -27q22 -12 45 -24 t47 -24q24 -10 49 -18t51 -14q30 -6 60 -10t60 -6q30 0 61 3t61 11q14 4 27 9t25 11q14 6 26 13t24 15q2 2 6 4t10 6q0 -14 1 -26t3 -26q0 -12 1 -24t1 -24q-2 -30 -6 -60t-12 -58q-8 -30 -19 -57t-27 -55q-16 -24 -35 -45t-41 -37t-49 -27t-57 -13q-16 -3 -31 -3h-8 q-19 1 -39 3q-18 4 -37 9t-37 9q-42 14 -82 31t-78 37q-40 20 -77 43t-73 47q-18 14 -36 27t-36 27q-18 12 -36 26l-36 28q-36 26 -73 47t-77 39q-38 16 -79 28t-85 16q-20 4 -41 5t-41 3t-41 3t-41 1q-14 2 -28 2h-26q-14 0 -28 -1t-28 -1q-18 0 -28 9t-10 27q0 26 -1 50 t-1 48z" />
<glyph unicode="N" d="M0 1504v74l6 2h520v-30v-42q-26 -2 -52 -10t-46 -24q-20 -14 -30 -35t0 -49q48 -110 96 -219t94 -219t93 -219t97 -219l222 416q-32 66 -61 132t-57 132l-60 132t-66 130q-10 20 -30 30t-44 16q-24 4 -50 6t-48 2v68l492 -2l2 -66q-16 -2 -34 -6t-30 -10q-14 -8 -22 -21 t-6 -33l140 -308q18 36 36 73t36 73q16 36 33 73t33 75q6 30 -5 47t-31 25t-45 10t-47 4l-2 64l440 2v-66q-24 -2 -47 -7t-43 -13q-22 -8 -39 -21t-31 -29q-32 -50 -61 -103t-55 -107q-26 -56 -51 -111t-51 -109q26 -58 51 -117t51 -115q26 -58 51 -114t51 -110l374 864 q-10 20 -25 35t-33 25q-18 12 -39 18t-41 12l-4 70l416 -4v-68q-14 -2 -27 -6t-27 -10q-12 -6 -23 -14t-23 -18l-20 -24t-18 -26l-516 -1188h-86l-246 578l-298 -578h-88q-66 136 -124 275t-114 279q-58 138 -118 276t-128 272q-18 30 -40 58t-48 52q-24 24 -49 41t-45 25z " />
<glyph unicode="O" d="M150 836q0 122 37 237t107 205q68 88 164 142t214 54q34 0 66 -3t60 -11q28 -6 53 -16t49 -22q22 -14 43 -23t43 -15q20 -6 40 -9t40 -3q16 0 35 2t37 4q18 4 37 10t39 14q44 18 83 31l69 23q32 10 56 15t42 5q46 0 86 -8t76 -22q38 -14 70 -34t62 -48q12 -12 24 -26 t24 -30t24 -34t24 -38q-56 -18 -100 -61t-74 -99q-32 -56 -49 -118t-17 -118q0 -70 19 -141t57 -131q36 -60 89 -105t119 -63q-18 -62 -51 -131t-75 -131q-42 -64 -89 -118t-93 -88q-20 -14 -42 -24t-44 -16q-24 -6 -50 -9t-54 -3q-18 0 -38 2t-42 6q-22 6 -46 13t-52 19 q-24 10 -45 18t-41 14q-20 4 -37 7t-31 3q-12 0 -30 -4t-42 -12q-26 -8 -55 -18t-65 -24q-20 -6 -37 -11t-33 -9t-29 -5t-25 -1q-30 0 -60 6t-60 18q-28 12 -56 30t-58 42q-88 82 -156 180t-116 208q-46 110 -71 230t-25 244zM1014 1462q0 42 8 82t24 78q14 38 37 74t51 72 q30 32 64 58t72 46q36 20 76 33t84 21q0 -44 -8 -87t-22 -85q-16 -40 -38 -79t-52 -73q-32 -36 -66 -62t-70 -44q-38 -18 -78 -26t-82 -8z" />
<glyph unicode="P" d="M0 24q6 4 9 7t5 7q58 56 114 112l112 112q56 58 112 114t114 112q6 6 9 13t3 17v134t-2 134q0 68 1 135t1 135q0 20 1 41t3 41t5 41t7 41q6 38 21 72t37 60q22 28 52 48t68 32l16 4l16 4t16 3t16 3q36 0 71 1t71 1q36 2 71 3t71 1l2 -1l2 -1v-8v-8v-76v-76v-74v-76 q0 -4 -1 -8t1 -8q4 -6 9 -14t11 -12q8 -6 16 -3t14 9q4 2 7 6t7 6q100 100 200 201t200 201l200 200l200 200q4 4 7 10t7 6h-10h-8h-288h-288h-288h-288q-24 0 -50 -2t-50 -4q-26 -2 -51 -6t-49 -8q-88 -18 -161 -52t-133 -84q-58 -50 -103 -117t-75 -151q-18 -46 -29 -93 t-17 -95q-8 -48 -11 -97t-3 -97v-269v-269v-268v-270v-8v-12zM148 -118q26 26 54 53t54 55q28 26 55 53l55 55q74 74 148 149t148 149q76 74 150 149t148 149l4 4l4 4q8 8 17 12t19 -2q12 -4 16 -14t4 -20v-78v-76v-76v-76v-11v-9q0 -2 4 -2h6h65t65 2q32 0 65 1t65 1l24 4 l24 4t24 6t22 8q36 12 64 32t48 46t33 57t21 67q4 18 7 38t5 40t3 40t1 40v137v137v137v137q0 10 3 17t9 13l112 112l112 112l112 112l112 112q4 4 6 8l4 8q2 0 5 -1t3 -3v-8v-8v-271v-269v-271v-269q-2 -50 -5 -100t-9 -100q-8 -48 -20 -96t-30 -96q-32 -80 -76 -145 t-102 -113t-130 -81t-154 -49q-26 -6 -52 -10t-52 -6t-52 -3t-52 -1h-287h-287h-288h-288h-8h-8v1v3z" />
<glyph unicode="Q" d="M121 615q-17 -3 -17 -13q0 -18 58 -58l51 -40q51 -40 97 -156l85 -108q55 -69 189 -69q75 0 174 21v-92v-94q0 -46 1 -81t1 -47h658q0 16 1 61t1 105v129v137q0 46 -7 84t-19 70q-14 30 -30 53t-34 39q112 12 220 44t196 104q86 72 139 194t53 314q0 54 -10 104t-26 94 q-18 44 -44 84t-58 76q6 12 15 43t11 75q1 15 1 32q0 34 -5 73q-8 59 -34 129l-88 -4t-278 -134q-40 12 -81 20t-83 14t-84 9t-84 3q-44 0 -86 -3t-84 -9t-83 -14t-81 -20q-190 130 -278 134l-88 4q-26 -70 -34 -129q-5 -39 -5 -73q0 -17 1 -32q2 -44 11 -75t15 -43 q-32 -36 -58 -76t-44 -84q-16 -44 -26 -94t-10 -104q0 -192 53 -313t139 -195q86 -72 195 -104t219 -46q-14 -12 -27 -29t-25 -39q-10 -22 -19 -50t-13 -60q-28 -12 -76 -25q-37 -10 -77 -10q-12 0 -25 1q-54 6 -109 37t-101 109l-52 65q-52 65 -152 71zM228 578q2 6 9 7h3 q5 0 10 -3q8 -2 12 -8t0 -12q-2 -4 -9 -5t-13 1q-8 4 -11 10q-2 4 -2 6t1 4zM281 526q0 7 5 10q3 3 9 3h3q8 -1 14 -9q8 -6 9 -14t-5 -14q-4 -4 -12 -2t-14 8q-9 9 -9 18zM334 455q0 9 6 15q3 2 6.5 2t7.5 -2q8 -4 16 -12q6 -8 6 -18t-8 -14q-6 -4 -14 -1t-14 13q-6 8 -6 17 zM396 376v5q0 7 4 11q3 4 9 4h5q10 -2 20 -10q8 -8 10 -18t-4 -16q-4 -6 -14 -5t-20 11q-8 8 -10 18zM484 326q4 8 13 11q4 1 8 1q6 0 13 -2q12 -4 18 -12t4 -14q-2 -8 -12 -12t-22 0q-10 4 -17 12t-5 16zM592 300q0 8 8 14t20 6t20 -5t8 -13q2 -10 -7 -16t-21 -6t-20 6 t-8 14zM694 312q0 6 5 11q7 7 19 9q4 1 8 1q7 0 13 -3q9 -4 11 -12v-4q0 -6 -5 -11q-7 -7 -19 -9q-4 -1 -8 -1q-7 0 -13 3q-11 5 -11 16z" />
<glyph unicode="R" d="M366 902q0 210 81 397t219 325q140 140 326 221t398 81q18 0 38 -1t38 -3q20 0 37 -3t33 -5v-140q-16 2 -33 4t-37 4q-18 2 -38 3t-38 1q-182 0 -344 -70t-282 -190t-190 -281t-70 -343q0 -184 70 -345t190 -281t282 -190t344 -70q18 0 38 1t38 3q20 2 37 4t33 6v-142 q-16 -2 -33 -4t-37 -4q-18 -2 -37 -2h-39q-212 0 -398 80t-326 220q-138 138 -219 325t-81 399zM668 902q0 -150 57 -282t155 -230t229 -155t281 -57q18 0 38 1t38 3q20 2 37 5t33 7v208q-16 -6 -33 -10t-37 -6q-18 -2 -37 -4t-39 -2q-108 0 -202 41t-166 111 q-70 72 -111 167t-41 203q0 106 41 201t111 167q72 70 166 111t202 41q20 0 39 -1t37 -5q20 -2 37 -6t33 -10v208q-16 4 -33 7t-37 5q-18 2 -37 3t-39 1q-150 0 -281 -57t-229 -155t-155 -230t-57 -280zM1104 904q0 -76 27 -137t75 -105t112 -67t138 -23q28 0 58 4t60 14 t57 26t51 40l-130 136q-8 -10 -18 -19t-22 -15t-26 -10t-30 -4q-36 0 -65 11t-51 33q-20 20 -30 50t-10 66t10 65t30 51q22 20 51 32t65 12q16 0 30 -4t26 -10t23 -15t17 -19l130 136q-24 22 -51 39t-57 27t-60 14t-58 4q-74 0 -138 -23t-112 -67t-75 -105t-27 -137z" />
<glyph unicode="S" d="M0 812v360h360v180q0 110 38 209t104 171q66 74 154 116t188 42h304v-354h-304q-22 0 -44 -14t-40 -40q-18 -24 -29 -58t-11 -72v-180h540v180q0 110 38 209t104 171q64 74 153 116t189 42h304v-354h-304q-22 0 -45 -14t-41 -40q-16 -24 -28 -58t-12 -72v-180h360v-360 h-360v-900h-358v900h-540v-900h-360v900h-360z" />
<glyph unicode="T" d="M486 616q0 30 11 56t31 46t46 31t56 11t57 -11t47 -31t31 -46t11 -56q0 -6 -1 -12t-1 -12l180 -130v430l-252 182q-8 -6 -16 -9t-18 -5q-8 -2 -18 -4t-20 -2q-30 0 -56 12t-46 30q-20 20 -31 47t-11 57t11 56t31 46t46 31t56 11t57 -11t47 -31t31 -46t11 -56q0 -6 -1 -12 t-1 -12l180 -132v404l-254 184l-16 -8t-16 -6q-10 -2 -19 -3t-19 -1q-30 0 -56 11t-46 31t-31 46t-11 56t11 57t31 47t46 31t56 11t57 -11t47 -31t31 -47t11 -57q0 -6 -1 -13t-1 -13l180 -130v324h140v-614l180 130q-2 6 -2 11v9q0 30 11 57t31 45q20 20 47 32t57 12t56 -12 t46 -32q20 -18 31 -45t11 -57t-11 -56t-31 -46t-46 -31t-56 -11q-12 0 -22 1t-18 3q-10 4 -19 8t-17 8l-248 -178v-404l180 130q-2 4 -2 8v10q0 30 11 56t31 46t47 31t57 11t56 -11t46 -31t31 -46t11 -56t-11 -57t-31 -47t-46 -31t-56 -11q-12 0 -22 1t-20 5q-10 2 -19 7 t-17 9l-246 -178v-430l180 130q-2 4 -2 8v8q0 30 11 57t31 47t47 31t57 11t56 -11t46 -31t31 -47t11 -57t-11 -56t-31 -46t-46 -31t-56 -11q-12 0 -22 1t-20 5q-10 2 -19 7t-17 9l-246 -176v-142h-140v430l-252 182l-16 -8t-18 -6q-8 -4 -18 -5t-20 -1q-30 0 -56 12t-46 30 q-20 20 -31 47t-11 57z" />
<glyph unicode="U" d="M0 956q0 -188 73 -354t199 -290q128 -122 298 -194t364 -72q54 0 108 6t106 18t101 30t95 40l704 -206l-230 732q12 34 21 70t17 72q6 36 9 74t3 76q0 188 -73 354t-199 290q-128 124 -298 195t-362 71q-194 0 -364 -72t-298 -196q-126 -122 -200 -288t-74 -356zM300 956 q0 128 50 241t136 197t202 133t246 49q132 0 247 -49t201 -133t136 -196t50 -240q0 -30 -3 -58t-9 -56q-4 -26 -12 -53t-18 -51l118 -332l10 -30l2 2l40 -108l-150 36l-320 102q-32 -18 -67 -31t-73 -21q-36 -10 -74 -14t-78 -4q-132 0 -247 48t-201 132t-136 196t-50 240z " />
<glyph unicode="V" d="M102 696v1024q0 42 16 80t44 66q28 26 65 43t81 17q42 0 79 -17t65 -43q28 -28 44 -66t16 -80v-1024q0 -84 32 -159t88 -131q56 -54 130 -87t160 -33h204q86 0 160 29t130 77t88 114t32 140t-19 140t-47 114q-30 48 -67 76t-71 28h-410q-42 0 -80 16t-66 44t-44 65 t-16 79t16 80t44 66q28 26 66 43t80 17h410q126 0 238 -61t196 -165q82 -104 131 -244t49 -298q0 -160 -65 -300t-175 -244q-112 -104 -261 -164t-319 -60h-204q-170 0 -319 64t-261 176q-110 110 -175 259t-65 319z" />
<glyph unicode="W" d="M136 286q0 18 19 44t69 60q24 56 51 107t29 63t27 136t69 262q42 140 93 210t63 80q10 6 14 11t-6 11t-76 95q-52 70 -52 200q0 35 4 75q4 22 12 13t14 -57q4 -26 16 -64t32 -78q22 -40 54 -75t76 -53h3q17 0 104 32q97 36 419 60q2 56 9 106l7 50l-16 17q-16 17 -20 51 q-10 -16 -18 -22t-22 -4q-14 4 -15 56v34q0 34 1 66q2 24 15 41t29 29q16 10 33 16t27 8q28 14 52 14h24l56 30q32 17 92 17q44 0 102 -9l85 -3t167 -57q16 0 29 -3t25 -9t22 -17t18 -25t17 -37t17 -49q6 -26 6 -52t-12 -48q-8 -8 -19 14l-11 22l-11 -31q-11 -31 -33 -47 v-18q0 -32 -5 -60q-7 -36 -17 -66q-8 -28 -18 -47t-16 -29q-4 -12 -2 -23t6 -21q4 -12 43 -160q35 -134 35 -203v-13q0 -34 -9 -69t-21 -67t-27 -58t-29 -38q4 -28 0 -54t-12 -48t-16 -39t-16 -29q-6 -10 -15 -35t-19 -55t-18 -59t-12 -49q-8 -40 -9 -78t7 -50q8 -14 35 -46 t25 -52q-2 -10 -12 -20t-24 -18q-12 -8 -26 -13t-24 -5t-25 3t-29 9t-25 16t-17 24q-4 14 -7 32t-5 36q0 20 1 37t5 31t15 65t21 119t13 142v23q0 60 -13 111q-70 -32 -159 -37l-89 -5l-18 -79q-18 -79 -42 -139q-4 -8 -6 -34t-4 -58v-72v-68q0 -62 15 -136l15 -74l19 -19 q19 -19 15 -47q-2 -14 -11 -24t-23 -18q-12 -8 -28 -11t-30 -3q-16 0 -32 5t-30 15q-14 12 -23 26t-9 34q0 18 1 47t3 63q0 34 1 69v23q0 22 -1 42q-2 30 -2 56t-2 50q0 22 -3 42t-7 40q-6 18 -15 52t-17 74t-15 83t-9 83q-10 0 -18 5l-8 5l-37 -42q-37 -42 -71 -74 q4 -20 13 -51t9 -39q0 -10 8 -17t22 -13t46 -27t30 -45q0 -12 -13 -19t-33 -9t-45 3t-49 15q-12 6 -43 103t-35 115q-6 18 -9 31t5 29q2 8 8 23t12 35q6 18 10 37t2 35q-2 14 -15 32t-33 34q-18 16 -40 26t-40 10q-14 0 -32 -9t-36 -23t-37 -30t-35 -30q-38 -30 -76 -66 t-48 -44q-12 -8 -77 -126t-83 -164q-2 -10 -9 -34t-21 -50t-37 -45q-21 -17 -54 -17h-7q-18 2 -32 12t-14 28z" />
<glyph unicode="X" d="M0 330l116 -46q14 -70 52 -131t92 -105t122 -69t144 -25q80 0 153 29t129 81q56 50 91 119t43 149l538 394q118 0 220 44t178 120t120 178t44 218q0 118 -44 220t-120 178t-179 120t-219 44t-217 -43t-177 -119q-78 -76 -122 -177t-46 -217l-350 -502q-10 2 -21 2h-21 q-30 0 -58 -4t-56 -10q-26 -8 -52 -19t-50 -25l-310 126v-530zM252 228q18 -6 38 -14t38 -16q20 -8 39 -15t37 -15q46 -19 91 -19h5q48 1 92 21q44 18 78 52t54 82q17 44 17 90v5q-1 49 -19 93q-20 42 -54 77t-80 53l-130 52q8 2 16 3t18 3q8 0 16 1t18 1q64 0 120 -24 t98 -66t66 -98t24 -122q0 -64 -24 -120t-66 -98t-98 -66t-120 -24q-46 0 -87 12t-75 34q-36 22 -64 52t-48 66zM1104 1286q0 78 30 147t80 121q52 50 120 80t146 30t147 -30t121 -80q50 -52 80 -121t30 -147t-30 -146t-80 -120q-52 -50 -121 -80t-147 -30t-146 30t-120 80 q-50 52 -80 120t-30 146zM1182 1288q0 62 23 117t65 97q40 40 95 64t117 24t117 -24t95 -64q42 -42 66 -97t24 -117t-24 -117t-66 -95q-40 -42 -95 -65t-117 -23t-117 23t-95 65q-42 40 -65 95t-23 117z" />
<glyph unicode="Y" d="M-8 910q0 -90 15 -176t45 -168q28 -80 70 -154t94 -140l14 275q14 275 518 797q-226 138 -353 201l-127 63q-64 -68 -115 -148t-87 -168t-55 -184t-19 -198zM276 206q70 -74 153 -132t177 -100q94 -40 197 -63t213 -23t213 23t197 63q94 42 177 101t153 131l-133 282 q-133 282 -611 634q-426 -316 -581 -616zM352 1688l178 39q26 6 56 6q168 0 430 -191v-2v1v1q264 188 432 188q28 0 54 -5l178 -37q-66 58 -143 103t-161 77t-175 49t-185 17q-96 0 -186 -17t-174 -49t-161 -77t-143 -103zM1286 1344q504 -522 517 -797l13 -275 q54 66 95 140t71 154q28 82 43 168t15 176q0 102 -19 198t-55 184q-34 88 -85 168t-115 148l-127 -63q-127 -63 -353 -201z" />
<glyph unicode="Z" d="M-6 840l4 -680l842 -110v790h-846zM-6 942h846v822l-842 -122zM922 38l1126 -154v956h-1126v-802zM922 942h1126v988l-1126 -152v-836z" />
<glyph unicode="^" d="M0 434q2 -34 38 -56t90 -38q54 -14 118 -24t124 -20q54 -8 107 -11t103 3q52 4 100 14t94 26v94v-192l330 -106v6l2 -6l288 100l480 168l-312 98l-458 -158v110l294 100l172 58q66 12 112 9t60 -17q14 -12 -7 -32t-87 -40l-86 -30l312 -98l6 2q46 16 80 36t56 42 q20 20 28 42t2 44q-8 36 -40 64t-86 50q-52 20 -125 33t-163 19q-64 6 -127 1t-125 -15q-64 -12 -126 -29t-124 -39l-26 -8v722q0 24 20 35t44 9t44 -15t20 -39v-566q98 -28 171 -21t123 49q50 40 75 116t27 184q0 92 -29 165t-85 129q-56 58 -137 98t-183 68l-420 112v-860 l-130 -44l130 -40v-216l-308 -102q-38 -14 -70 -8t-50 22q-16 14 -12 34t38 32l76 26l-284 90q-32 -10 -63 -28t-53 -40q-24 -22 -37 -51t-11 -61zM164 614l284 -90l326 118v94l-130 40l-474 -160l-2 -1t-4 -1z" />
<glyph unicode="a" d="M0 258q12 -2 25 -3t25 -1q12 -2 25 -2h25q74 0 145 12t137 36q64 22 125 56t115 76q-68 0 -131 23t-115 61q-50 40 -88 92t-58 116q10 -2 19 -4t19 -2q10 -2 20 -2h20q14 0 29 1t29 3q12 2 26 5t28 5q-72 16 -134 53t-108 91q-44 56 -70 124t-26 144v3v3q22 -12 44 -21 t46 -17q24 -6 49 -10t51 -4q-42 28 -76 66t-60 82q-24 44 -37 95t-13 107q0 28 4 56t10 54q8 26 19 52t23 48q78 -94 174 -172t206 -136q110 -56 233 -90t253 -40q-2 10 -4 22l-4 24q0 12 -1 24t-1 26q0 86 33 163t89 133q58 58 134 91t164 33q46 0 88 -10t82 -26 q38 -18 73 -42t63 -56q36 8 71 18t69 22q32 14 64 29t64 33q-12 -36 -30 -70t-42 -62q-24 -30 -52 -55t-62 -45q32 4 63 10t61 14q32 8 61 19t57 23q-22 -32 -45 -61t-51 -57q-26 -28 -54 -52t-60 -48q0 -12 1 -26t1 -28q0 -208 -78 -421t-230 -385t-375 -281t-513 -109 q-88 0 -174 13t-168 37q-80 24 -156 60t-146 80z" />
<glyph unicode="b" d="M526 838v346h254v90v206q0 86 29 167t89 143q62 62 155 99t223 37q106 0 175 -7l69 -7l-8 -324l-67 1q-67 1 -155 1q-46 0 -74 -11t-44 -31q-16 -18 -21 -47t-5 -65v-12v-4v-28v-46v-68v-94h376l-16 -346h-360v-960h-366v960h-254z" />
<glyph unicode="c" d="M0 346q0 -32 8 -63t22 -59q16 -30 39 -56t53 -50q30 -26 68 -45t84 -31q46 -14 99 -21t115 -7q72 2 137 11t121 27q56 16 103 42t85 60q38 32 66 67t46 73q20 38 29 78t9 82q0 30 -4 57t-10 51q-8 24 -18 45t-22 39q-14 20 -29 37t-31 33q-16 18 -34 33t-36 31l-78 64 q-10 10 -18 19t-18 21t-16 27t-6 33q0 10 2 19t4 17t6 16t10 14q8 14 18 26l20 24q10 8 18 16t18 14l16 16l16 16t15 16t15 16q6 8 13 17t13 17q14 20 24 42t16 46q8 26 11 54t5 58q0 18 -1 34t-3 30q-2 16 -5 30t-7 26t-9 24t-11 24q-6 10 -11 21t-11 19q-8 10 -14 19 t-12 17t-13 16t-13 14q-14 12 -26 25t-24 13h144l144 82h-466q-24 0 -48 -1t-48 -3q-26 -2 -51 -6t-51 -8q-28 -8 -54 -17t-52 -23q-26 -12 -51 -29t-51 -37q-36 -36 -63 -72t-45 -76q-18 -38 -27 -79t-9 -83q0 -36 6 -69t20 -65q12 -30 31 -59t45 -57q24 -28 54 -50t66 -36 t77 -22t87 -8h17t19 2q10 0 19 1t19 1q-2 -8 -6 -18t-8 -22q-4 -10 -6 -23t-2 -27t1 -26t5 -22q2 -12 6 -22t10 -18q6 -10 11 -19t11 -19q6 -8 12 -17t12 -17q-20 0 -43 -2t-49 -4t-54 -6t-60 -8q-30 -6 -61 -14t-61 -18q-28 -10 -57 -24t-59 -30q-24 -16 -45 -32t-39 -34 q-18 -16 -31 -35t-23 -39t-18 -39t-12 -37q-6 -18 -8 -35t-2 -33zM198 396q0 16 1 30t5 28t8 26t12 22q4 12 11 21t13 19q6 8 14 16t16 14q8 8 16 14l16 12q10 4 18 9t16 9q16 6 28 11t22 9q18 6 37 10t37 10q18 4 37 7t37 5q36 4 59 5t31 -1h29t23 -2q34 -22 62 -43t52 -41 q24 -18 43 -36t35 -32q14 -18 25 -35t19 -37q6 -20 10 -41t4 -43q0 -26 -5 -51t-17 -47q-10 -22 -26 -42t-36 -38q-22 -18 -49 -31t-57 -23q-32 -8 -68 -13t-78 -5q-46 0 -87 5t-77 17q-36 10 -67 25t-59 35q-26 20 -47 42t-35 48t-21 53t-7 59zM314 1462q0 22 2 45t10 45 q6 22 16 42t22 40q16 18 34 32t38 24q18 10 40 15t46 5q18 0 35 -3t33 -9q14 -4 29 -12t29 -18t26 -22t24 -26q10 -14 20 -29t18 -33q16 -34 30 -69t22 -69q8 -36 13 -70t5 -68q0 -16 -1 -36t-5 -44q-2 -12 -5 -23t-9 -23q-4 -10 -10 -22t-14 -22q-14 -16 -32 -28t-36 -20 q-20 -8 -41 -13t-43 -5q-18 0 -36 3t-34 7q-16 6 -31 14t-29 20q-14 10 -27 23t-25 27q-10 12 -21 27t-19 31q-18 34 -32 68t-24 66t-14 65t-4 65zM1146 1250v142h390v390h122v-390h390v-142h-390v-390h-122v390h-390z" />
<glyph unicode="d" d="M204 1166q0 26 3 52t7 52q4 28 10 54t16 54q8 26 19 52t25 52q12 26 28 51t34 49t38 48t40 44q22 22 45 43t49 41q24 18 52 35t58 33q32 16 65 29t69 25q36 10 74 19t76 15q40 6 80 9t82 3t83 -4t81 -12q38 -6 76 -17t74 -27q38 -14 71 -31t63 -37q32 -18 59 -40t51 -46 q26 -24 48 -50t40 -54q20 -28 37 -58t31 -60q14 -32 24 -64t18 -64q6 -34 10 -67t4 -65q0 -92 -12 -174t-34 -158q-24 -74 -58 -141t-80 -125q-46 -60 -98 -104t-112 -74q-58 -28 -124 -43t-138 -15q-24 0 -48 3t-46 7q-22 6 -44 15t-42 19q-22 12 -40 24t-32 26 q-14 12 -26 27t-20 31q-18 -70 -32 -126t-24 -98q-12 -42 -19 -70t-11 -40q-8 -36 -24 -75t-36 -81q-22 -42 -50 -87t-62 -93h-84q-6 60 -9 117q-2 34 -2 66q0 21 1 41q2 50 7 96t15 86l156 662q-8 20 -16 42t-12 46t-7 50t-3 56q0 32 4 63t14 59q8 28 21 53t29 47 q18 24 37 41t39 27q20 12 43 18t47 6q20 0 37 -4t33 -10q14 -6 27 -16t23 -22q12 -14 20 -29t12 -31q6 -16 9 -34t3 -38q0 -12 -2 -25t-4 -29q-2 -14 -5 -31t-7 -33q-4 -18 -10 -37t-12 -39q-4 -20 -11 -42t-15 -46t-14 -44l-12 -40q-4 -18 -8 -34t-8 -30q-6 -24 -6 -46 t4 -44q4 -20 14 -39t24 -37q16 -16 33 -29t37 -23q18 -8 40 -12t46 -4q42 0 81 11t73 35t65 59t59 83q26 48 47 100t33 108q14 58 21 120t7 130q0 52 -9 98t-25 88t-41 80t-59 70t-74 56t-86 40t-99 25t-113 9q-66 0 -127 -11t-115 -33q-54 -20 -102 -52t-88 -76 q-42 -42 -73 -89t-53 -99q-20 -50 -30 -106t-10 -116q0 -34 5 -67t15 -63t25 -57t35 -53q6 -8 11 -16t7 -16t2 -17t-2 -17q-4 -14 -10 -39t-14 -59q-4 -12 -10 -19t-14 -11t-18 -4t-20 4q-30 12 -57 29t-51 39t-43 49t-35 59q-16 30 -28 64t-20 70t-12 74t-4 80z" />
<glyph unicode="e" d="M290 4q0 -30 7 -51t19 -35q10 -14 21 -22t21 -12q8 -2 25 -5q10 -2 21 -2q7 0 14 1q18 2 37 10t35 24l259 301q259 301 265 307q10 10 13 12t13 2h49h87h104h94q52 0 85 16t51 40q18 26 27 53t15 49q4 18 29 141t55 281q32 156 63 311t47 239q12 56 12 101v12 q-2 49 -22 81q-20 34 -59 51t-99 17h-490h-602q-58 0 -95 -19t-59 -47q-24 -28 -33 -60t-9 -60v-895v-841zM516 278v1356q0 10 5 22t13 22q10 10 22 16t26 6h426h450q14 0 25 -6t19 -14q8 -10 11 -23t1 -27l-46 -240q-2 -10 -9 -19t-17 -17q-8 -8 -20 -12t-22 -4h-225h-201 q-18 0 -33 -6t-27 -16q-10 -12 -16 -26t-6 -32v-54q0 -16 6 -32t16 -26q12 -10 27 -16t33 -6h168h192q14 0 26 -7t20 -17t13 -23t1 -27q-4 -28 -23 -124t-23 -110q-2 -16 -19 -35t-47 -19h-160h-134q-20 0 -34 -2t-26 -8t-23 -16t-23 -26q-28 -34 -194 -233l-166 -199 q-2 -3 -3 -3h-1q-2 1 -2 3zM1552 692q4 18 29 141t55 281q32 156 63 311t47 239z" />
<glyph unicode="f" d="M0 1544q10 4 53 5h31q33 0 76 -1q66 0 145 -1h53q53 0 106 1q54 2 135 3h54q53 0 105 -1q78 0 139 -2t75 -4l-10 -72q-16 -4 -58 -7t-88 -7q-48 -2 -92 -6t-64 -10q52 -76 116 -161t124 -165q62 -78 113 -144t77 -104q14 20 76 70t132 108q68 58 125 112t61 84 q-20 4 -59 11t-79 13q-42 4 -76 9t-44 5l-18 92q18 4 70 4h116q64 -2 130 -3t114 -1h102h120t112 -1t76 -5l-60 -86q-14 -2 -45 -8t-67 -14t-70 -15t-52 -11q-20 -6 -108 -69t-188 -143q-98 -82 -182 -160t-96 -112q-2 -12 -4 -27t-4 -31q-2 -18 -2 -35v-35l-4 -74 q0 -20 2 -45t6 -51t8 -49t6 -41q12 -2 55 -3t95 -1q50 0 95 -1t61 -3l-4 -96q-16 2 -73 2h-133h-155h-145q-32 0 -93 -1t-129 -3t-129 -3h-37q-35 0 -56 1l16 90q18 2 58 2t84 2t83 9t55 23q8 10 11 20t3 28q2 18 1 48t-1 78v62v25v33q-2 16 -3 35t-3 39q-8 20 -80 116 t-166 208q-92 114 -182 216t-130 134q-12 4 -51 10t-85 12q-44 4 -86 10t-62 10z" />
<glyph unicode="g" d="M14 1366q0 -38 5 -75t15 -73t24 -69t34 -65q-6 -24 -9 -48t-7 -48q-2 -24 -3 -48t-1 -50q0 -200 75 -375t207 -305q130 -132 306 -207t374 -75q24 0 46 1t44 3t44 5t44 7q28 -16 60 -29t64 -21q34 -8 69 -12t71 -4q114 0 216 43t178 119t120 178t44 218q0 34 -4 66 t-12 64q-6 30 -17 60t-25 58q6 24 10 50t6 52l4 52t2 52q0 200 -76 375t-206 307q-130 130 -306 206t-376 76q-20 0 -41 -1t-41 -3q-22 -2 -42 -5t-40 -5q-32 20 -67 36t-73 26q-38 12 -77 18t-81 6q-114 0 -216 -44t-178 -120t-120 -178t-44 -218zM460 618q0 14 2 26t8 24 q4 12 12 22t18 20q10 8 21 15t23 13q14 4 28 6t28 2q12 0 24 -1t22 -5t20 -10t18 -12q10 -8 17 -17t15 -19q6 -10 13 -22t13 -26t13 -27t13 -27q8 -12 15 -23t13 -21l17 -17t19 -17t21 -15t25 -13q12 -6 28 -11t32 -7q18 -4 38 -5t42 -1q30 0 57 3t51 9t46 16t40 22t31 26 t23 28q8 16 12 32t4 34q0 14 -2 27t-6 25q-6 10 -13 20t-15 20q-10 8 -22 16l-24 16t-27 14t-31 10q-16 6 -35 11t-41 11q-22 4 -47 10t-53 12q-38 8 -72 17t-66 17q-32 10 -61 20t-53 22q-26 10 -49 23t-45 29q-20 16 -38 33t-34 35q-16 20 -27 42t-19 46t-12 50t-4 56 q0 26 4 52t12 52q8 24 20 47t30 43q16 22 36 40t42 36q24 16 51 30t57 24q30 12 63 20t69 14q34 6 72 8t78 2q34 0 64 -1t58 -5t54 -10t50 -12q24 -8 46 -17t42 -19t37 -21t33 -23t30 -25t26 -27q12 -12 21 -26t17 -28t14 -28t8 -26q4 -14 6 -28t2 -28q0 -12 -2 -24t-8 -24 q-4 -12 -12 -23t-18 -21t-21 -18t-23 -14q-12 -4 -26 -7t-28 -3t-26 2t-22 6q-10 2 -19 7t-17 11q-6 6 -13 14t-13 18q-8 8 -15 20t-15 24q-10 18 -20 33t-20 29q-12 14 -23 25t-23 21q-14 10 -30 16t-36 12q-20 4 -44 6t-52 2q-26 0 -49 -2t-45 -8q-20 -4 -38 -12t-34 -18 t-27 -21t-19 -21q-6 -12 -10 -25t-4 -25q0 -18 5 -31t13 -25l12 -12t14 -12q6 -6 15 -11t17 -9q10 -6 20 -10t18 -8q10 -4 20 -7t20 -5q10 -4 23 -7t31 -7l36 -9t44 -9q28 -8 56 -14t56 -14q26 -6 51 -14t49 -14q24 -8 46 -17t44 -17q20 -10 39 -20t35 -22q18 -12 34 -24 t28 -28q14 -14 26 -30t22 -32q10 -18 17 -37t11 -41q6 -22 8 -45t2 -47q0 -30 -4 -58t-12 -56q-8 -26 -21 -52t-29 -50q-18 -22 -38 -44t-46 -40q-24 -18 -52 -34t-60 -30q-32 -12 -67 -22t-73 -18q-38 -6 -78 -9t-84 -3q-52 0 -99 4t-91 14q-44 8 -82 22t-72 32 q-24 12 -46 28t-42 34q-20 16 -38 36t-32 42q-16 22 -28 44t-20 44q-6 22 -10 44t-4 42z" />
<glyph unicode="h" d="M196 595v33l28 348q0 8 4 17t12 17q6 8 14 15t16 13q24 14 60 3l36 -11l434 -218l32 -23q32 -23 32 -63q0 -26 -6 -41t-16 -23q-8 -8 -17 -12t-17 -10l-506 -112l-39 -8q-9 -2 -16 -2q-27 0 -41 22q-10 22 -10 55zM420 1722q16 24 38 35l22 11l404 150q12 2 31 7q3 1 6 1 q19 0 57 -24q30 -16 39 -62l9 -46l4 -692l-12 -43t-54 -53q-13 -3 -25 -3q-24 0 -42 13l-27 20l-420 570l-26 40q-14 22 -14 42q0 18 10 34zM524 48q-2 8 -2 16q0 21 14 45l20 33l338 372l32 20q18 11 36 11l28 -7q30 -16 36 -43l6 -27l-8 -504l-2 -37q-2 -37 -34 -45 q-17 -6 -35 -6q-7 0 -14 1l-25 3l-340 108q-8 4 -16 10t-14 12q-6 8 -11 17t-9 21zM1185 893l9 27l274 432l20 27q17 24 47 24q4 0 9 -1q30 -2 46 -20l16 -18l232 -272l9 -27q9 -27 1 -53q-6 -26 -41 -44l-35 -18l-486 -142l-37 -1h-2q-35 0 -53 31q-12 19 -12 37q0 9 3 18z M1202 556q-3 10 -3 19q0 24 19 43q22 22 48 22h4l28 -2l486 -156l35 -13q35 -13 35 -47q-2 -24 -12 -47l-10 -23l-206 -294l-23 -15q-23 -15 -51 -15t-54 29l-26 29l-260 434z" />
<glyph unicode="i" d="M308 788q0 -208 52 -376t142 -286q92 -118 217 -183t271 -65h9q137 0 268 59q135 61 241 163q104 100 168 229t64 263q0 154 -38 264t-100 192q-64 80 -147 139t-171 111q13 -69 13 -131q0 -59 -12 -111q-25 -106 -85 -174q-60 -66 -149 -91q-40 -11 -84 -11 q-52 0 -109 16q144 235 144 374v11q-6 141 -62 247q-54 106 -103 213q-21 46 -21 104q0 79 38 181q-102 -74 -200 -205t-176 -289q-76 -156 -123 -325t-47 -319zM491 609q17 185 153 405q-17 -76 -17 -146q0 -47 8 -91q19 -109 69 -189q48 -80 118 -126t144 -46q82 0 149 36 t117 100q52 64 88 151t60 187q132 -100 170 -248q16 -62 16 -123q0 -83 -30 -161q-52 -138 -190 -237t-356 -103h-15q-137 0 -254 69q-123 73 -185 205q-49 104 -49 240q0 37 4 77z" />
<glyph unicode="j" d="M0 1672q0 24 5 48t13 46q10 22 23 42t31 38t39 32t41 22q22 10 46 15t50 5t50 -5t46 -15q20 -8 41 -22t39 -32t31 -38t23 -42q8 -22 13 -46t5 -48q0 -26 -5 -50t-13 -46q-10 -22 -23 -42t-31 -38t-39 -32t-41 -22q-22 -10 -46 -14t-50 -4t-50 4t-46 14q-20 8 -41 22 t-39 32t-31 38t-23 42q-8 22 -13 46t-5 50zM14 -66v1290q0 10 4 19t10 17q8 8 17 12t21 4h364q12 0 21 -4t17 -12q6 -8 10 -17t4 -19v-1290q0 -10 -4 -19t-10 -17q-8 -8 -17 -11t-21 -3h-364q-12 0 -21 3t-17 11q-6 8 -10 17t-4 19zM682 -66v1290q0 10 4 19t12 17t17 12 t19 4h354q10 0 18 -2t14 -6t10 -10t6 -16t3 -17t1 -11v-11v-21q36 32 76 56t84 40q46 16 98 24t108 8q64 0 120 -8t106 -24t93 -39t79 -55t63 -72t45 -86q18 -48 27 -103t9 -117v-870q0 -12 -4 -21t-12 -17t-17 -11t-19 -3h-374q-10 0 -19 3t-17 11t-12 17t-4 21v784 q0 28 -3 50t-7 42t-12 35t-18 29q-10 12 -23 21t-31 15t-40 9t-48 3q-32 0 -60 -5t-50 -13q-24 -10 -42 -25t-30 -33q-14 -20 -24 -43t-16 -49t-10 -57t-4 -65v-700q0 -10 -4 -19t-12 -17q-6 -8 -16 -11t-20 -3h-366q-10 0 -19 3t-17 11t-12 17t-4 19z" />
<glyph unicode="k" d="M144 612q0 74 12 142t36 130q24 64 60 122t82 112q54 60 113 104t125 74q68 30 141 44t153 14q34 0 67 -2t63 -8q32 -6 62 -13t58 -19q-8 -18 -17 -38t-17 -42q-6 -22 -11 -45t-9 -47q-22 10 -46 17t-48 11t-50 7t-52 3q-56 0 -108 -11t-98 -31q-48 -20 -92 -52t-84 -72 q-40 -42 -70 -88t-50 -96q-20 -52 -30 -106t-10 -114q0 -38 5 -75t13 -73q10 -34 23 -69t33 -67q18 -32 39 -62t45 -54q26 -26 53 -48t59 -40q20 -12 42 -21t44 -17t44 -14t46 -10q198 78 295 277t135 413q36 201 36 366v17q-2 171 -4 189q-8 24 -29 81t-57 137 q-36 82 -85 181t-113 207l126 -136t158 -466v-1v-3l3 -9l1 -3q103 -273 102 -488q0 -275 -168 -453l-300 -317q36 0 71 4t69 14q32 8 64 21t64 31q30 18 58 40t52 48q26 24 47 54t39 62t32 67t22 69q10 36 14 73t4 75q0 32 -2 61t-8 59q-6 28 -14 55t-20 53q20 4 40 10 t40 14q22 8 44 19t46 25q14 -34 24 -69t18 -71q6 -36 10 -74t4 -78q0 -74 -13 -143t-39 -133q-24 -64 -62 -124t-88 -114q-50 -56 -108 -97t-124 -69q-64 -28 -136 -41t-152 -13t-152 13t-138 41q-64 28 -122 69t-108 97q-50 54 -88 114t-64 124q-24 64 -37 133t-13 143z M864 50l1 -1l1 -1l1 1l1 1h-1h-3zM1259 1320q-11 31 -11 62q0 87 88 176l48 36q48 36 168 66l91 40q91 40 157 178l76 -166q36 -79 36 -176q0 -108 -44 -238l-41 -83q-41 -83 -127 -133q-32 -20 -72 -31q-26 -7 -54 -7q-15 0 -32 2q-46 4 -95 28t-101 74l208 137 q208 137 220 279l-106 -152q-106 -152 -366 -210z" />
<glyph unicode="l" d="M152 532q0 12 6 24l314 554v2l-200 344q-6 14 -6 25t4 21q6 10 17 14t25 4h294q18 0 31 -5t23 -13q8 -8 16 -17t12 -19l101 -177t103 -177q-10 -16 -164 -290l-154 -274q-6 -10 -13 -21t-17 -19t-22 -13t-30 -5h-294q-14 0 -24 6t-16 14q-6 10 -6 22zM816 704 q16 28 337 596l321 568q4 12 11 22t17 18t22 13t28 5h298q14 0 24 -5t16 -15t6 -22t-6 -24l-654 -1156q-2 0 -2 -1t2 -1l416 -760q6 -12 6 -24t-6 -22t-16 -14t-22 -4h-296q-16 0 -29 5t-23 13t-18 18t-12 20l-210 384q-210 384 -210 386z" />
<glyph unicode="m" d="M0 274v52v92q0 58 22 110t62 92q38 38 90 61t112 23q58 0 110 -23t92 -61q38 -40 61 -92t23 -110v-92v-52h-572zM22 1026q0 54 21 102t55 84q36 36 84 57t104 21q54 0 102 -21t84 -57t57 -84t21 -102t-21 -103t-57 -83q-36 -36 -84 -57t-102 -21q-56 0 -104 21t-84 57 q-34 34 -55 83t-21 103zM634 274v58v102q0 66 25 124t69 100q42 44 100 69t124 25t124 -25t102 -69q42 -42 67 -100t25 -124v-102v-58h-636zM658 1110q0 60 23 114t63 94t94 63t114 23q62 0 115 -23t93 -63t63 -94t23 -114q0 -62 -23 -115t-63 -93t-93 -63t-115 -23 q-60 0 -114 23t-94 63t-63 93t-23 115zM1334 274v65v115q0 74 28 139t76 113t113 77t139 29t139 -29t115 -77q48 -48 76 -113t28 -139v-115v-65h-714zM1362 1200q0 68 26 128t70 104q46 44 105 70t127 26t128 -26t104 -70q46 -44 71 -104t25 -128t-25 -128t-71 -104 q-44 -44 -104 -70t-128 -26t-127 26t-105 70q-44 44 -70 104t-26 128z" />
<glyph unicode="n" d="M0 574v246h40v-246h-40zM102 492v388h42v-388h-42zM184 472v450h42v-450h-42zM266 450v452h42v-452h-42zM368 450v594h42v-594h-42zM450 450v676h42v-676h-42zM552 450v718h42v-718h-42zM634 450v738h42v-738h-42zM738 450v718h40v-718h-40zM820 450v696h40v-696h-40z M902 450v778h40v-778h-40zM1004 450v840h40v-840h-40zM1064 486v800q0 12 6 19t22 11q18 8 37 13t41 9q20 4 41 6t41 2q88 0 166 -31t136 -85q60 -56 98 -130t46 -160q10 6 22 9t24 7q14 2 26 3t26 1q52 0 98 -20t80 -54t54 -80t20 -98t-19 -98t-55 -80q-34 -34 -79 -54 t-99 -20h-352h-350q-12 2 -21 10t-9 20z" />
<glyph unicode="o" d="M1 1374q3 26 15 50q12 22 32 39t48 27q190 56 434 78q128 12 259 12q119 0 241 -10q256 -22 504 -88t448 -186q24 -14 40 -35t22 -47q4 -16 4 -33q0 -9 -1 -18q-3 -27 -17 -51q-16 -24 -37 -40t-47 -22q-24 -6 -51 -2t-51 18q-174 102 -394 160t-448 76q-112 9 -220 9 q-115 0 -226 -10q-216 -19 -382 -69q-28 -8 -54 -5t-48 15q-24 12 -41 32t-25 48q-6 19 -6 38q0 7 1 14zM98 908q2 22 12 40q10 20 27 34t39 20q196 60 411 76q82 6 163 6q132 0 264 -16q212 -24 412 -89t366 -167q20 -12 33 -31t19 -39q2 -11 2 -24q0 -9 -1 -18 q-3 -22 -15 -42t-31 -33t-39 -19q-20 -4 -42 -1t-42 15q-146 90 -324 147t-366 79q-116 13 -233 13q-74 0 -148 -5q-191 -14 -363 -66q-22 -6 -44 -4t-42 12q-18 10 -33 27t-21 39q-4 18 -4 35v11zM159 478q3 18 11 32q10 14 24 25t32 15q206 46 397 60q79 6 154 6 q108 0 211 -12q176 -22 335 -75t301 -139q16 -10 26 -25t14 -31q3 -12 3 -24q0 -6 -1 -11q-2 -17 -12 -33t-25 -26t-31 -14q-11 -3 -22 -3q-6 0 -12 1q-18 2 -34 12q-126 78 -269 125t-301 65q-90 9 -186 9q-72 0 -146 -5q-174 -12 -362 -56q-18 -4 -35 -1t-33 13 q-14 10 -24 24t-14 32q-2 10 -2 21q0 7 1 15z" />
<glyph unicode="p" d="M0 902q0 -212 80 -399t220 -325q138 -140 325 -220t399 -80t399 80t325 220q140 138 220 325t80 399t-80 398t-220 326q-138 138 -325 219t-399 81t-399 -81t-325 -219q-140 -140 -220 -326t-80 -398zM234 900q0 26 1 51t5 51t8 51t10 51q4 14 9 29t11 31q28 86 76 162 t112 140q62 64 138 113t162 79q32 12 65 20t65 14q34 6 68 9t68 3q100 0 196 -25t182 -71q88 -46 161 -113t129 -149q14 -22 26 -44t22 -44q12 -22 22 -45t18 -45h-2q6 -16 11 -32t9 -30q6 -26 11 -51t7 -51q4 -26 5 -52t1 -52q0 -48 -9 -95t-33 -81q-22 -32 -62 -42 q-12 -3 -25 -3q-33 0 -75 17q-28 12 -55 30t-51 40q-22 22 -43 46t-39 50q-20 28 -41 56t-43 56q-20 28 -42 55t-46 55q-22 24 -44 49t-46 49q-22 22 -46 45t-48 45q-26 22 -52 43t-52 41q-28 18 -57 35t-57 33q-20 8 -41 17t-41 17q-20 6 -41 13t-43 13q-4 2 -14 5t-14 -3 q-4 -4 -3 -10t3 -10q0 -8 1 -17t3 -17q6 -54 10 -108q3 -36 3 -72q0 -18 -1 -36q-2 -54 -9 -107t-23 -105q-10 -26 -22 -53t-28 -51t-34 -46t-40 -42q-18 -16 -39 -32t-45 -28t-49 -19t-49 -5q-10 0 -19 2t-19 4q-26 10 -41 28t-23 40q-8 24 -10 49t-2 49z" />
<glyph unicode="q" d="M0 882q0 138 34 247t100 185q68 76 166 116t228 40q116 0 206 -22t158 -72t117 -130t87 -194l76 -234q22 -64 53 -118t77 -94t110 -62t152 -22q60 0 106 7t76 21q32 16 47 39t15 55q0 26 -8 48t-26 40t-49 33t-75 25l-160 38q-74 16 -125 44t-85 66q-32 38 -47 87 t-15 109q0 96 35 161t95 103q58 40 133 56t155 16q88 0 160 -17t124 -53t82 -92t36 -136l-234 -28q-4 38 -17 65t-35 45q-24 16 -56 25t-74 9q-40 0 -71 -9t-51 -25q-22 -16 -34 -40t-12 -54q0 -26 7 -47t21 -39q16 -16 42 -28t64 -22l150 -32q76 -18 134 -46t96 -68 q40 -42 60 -96t20 -126q0 -88 -35 -150t-99 -100q-66 -38 -155 -56t-199 -18q-152 0 -258 32t-176 88q-72 56 -116 131t-72 159l-74 236q-22 64 -47 119t-61 97q-38 42 -91 65t-131 23q-52 0 -104 -20t-94 -68q-40 -46 -65 -121t-25 -183q0 -84 21 -152t57 -114 q36 -48 87 -74t113 -26q136 0 220 68l84 68l76 -204l-97 -62t-295 -62q-124 0 -219 36t-161 104q-64 70 -98 173t-34 237z" />
<glyph unicode="r" d="M176 466q0 50 1 101t3 101q4 52 10 102t16 98q8 34 25 62t41 50t54 36t64 18q78 8 157 13t159 7t159 3t159 1t159 -1t159 -3t159 -7t157 -13q34 -4 64 -18t54 -36t41 -50t25 -62q12 -48 18 -98t8 -102q2 -50 3 -101t1 -101q0 -48 -1 -99t-3 -101q-4 -52 -10 -102t-16 -98 q-8 -34 -25 -63t-41 -51t-54 -35t-64 -17q-78 -10 -157 -14t-159 -6q-80 -4 -159 -4h-159h-159t-159 4q-80 2 -159 6t-157 14q-34 4 -64 17t-54 35t-41 51t-25 63q-10 48 -16 98t-10 102q-2 50 -3 101t-1 99zM308 758h122v-656h102v656h124v102h-348v-102zM450 1926 q10 -24 19 -50t17 -54q10 -28 19 -56t19 -54q14 -40 24 -75t16 -65q8 -30 15 -55t15 -47v-324h102v324l150 456h-116l-78 -302l-82 302h-120zM676 218q0 -30 2 -50t6 -34q4 -10 10 -18t14 -14q8 -4 18 -7t22 -3q14 0 27 4t27 14q14 8 28 21t30 31v-60h102v574h-102v-442 q-16 -24 -31 -36t-29 -12q-12 0 -17 6t-7 18q0 2 1 12t1 28v426h-102v-458zM860 1344v200q0 24 1 44t5 36q2 18 7 31t13 25q12 14 24 25t26 19q14 6 31 10t35 4q20 0 37 -4t31 -10q14 -8 26 -19t22 -25q10 -12 15 -25t9 -31q2 -16 3 -36t1 -44v-200q0 -22 -1 -42t-5 -36 q-2 -18 -8 -31t-14 -25q-10 -14 -23 -25t-27 -19q-14 -6 -31 -10t-37 -4q-18 0 -35 4t-31 10q-14 8 -26 19t-22 25q-8 12 -13 25t-9 31q-2 16 -3 36t-1 42zM942 1326q0 -20 3 -35t11 -25q6 -10 15 -15t23 -5q12 0 21 5t17 15q6 10 9 25t3 35v240q0 20 -3 35t-9 25 q-8 8 -17 13t-21 5q-14 0 -23 -5t-15 -13q-8 -10 -11 -25t-3 -35v-240zM1064 102h82v52q16 -14 31 -26t29 -20q12 -8 26 -12t28 -4q16 0 28 4t24 12q10 8 18 20t12 28q4 8 5 20t3 26q0 14 1 31t1 37v224v38t-2 32q0 14 -2 25t-4 19q-6 16 -14 28t-20 20q-10 8 -24 12t-28 4 t-28 -4t-26 -12q-14 -6 -28 -18t-30 -28v250h-82v-758zM1146 210v346q16 12 29 18t27 6q10 0 19 -5t15 -15t10 -24t4 -34v-240q0 -20 -4 -34t-10 -24t-15 -14t-19 -4q-14 0 -27 6t-29 18zM1228 1280q0 -30 5 -51t11 -35q2 -10 9 -18t17 -14q10 -4 21 -7t23 -3q14 0 29 4 t31 14q14 8 29 21t31 31v-76h102v574h-102v-426q-16 -24 -33 -36t-33 -12q-10 0 -14 6t-6 18q0 2 2 12t2 28v410h-124v-440zM1434 284q0 -24 2 -43t8 -37q4 -16 10 -30t14 -24q12 -14 25 -25t29 -19q16 -6 33 -10t39 -4q20 0 38 4t32 12q16 8 30 19t24 27q4 6 8 13t6 15 q4 8 5 16t3 16v25v41v6h-100q0 -30 -1 -45t-1 -19q-4 -20 -16 -29t-32 -9q-12 0 -23 5t-17 15t-10 25t-4 35v104h204v114q0 22 -1 42t-5 36t-9 30t-13 24q-12 14 -24 25t-28 19q-14 8 -31 11t-37 3t-37 -3t-33 -11t-30 -19t-24 -25q-10 -10 -16 -24t-10 -30t-6 -36t-2 -42 v-198zM1536 450h102v52q0 20 -3 34t-9 24t-16 15t-22 5q-14 0 -23 -5t-17 -15q-6 -10 -9 -24t-3 -34v-52z" />
<glyph unicode="s" d="M0 1310q38 34 76 67t74 67q38 34 75 67t73 67q52 42 96 76t82 56q38 24 70 36t56 16q11 1 22 1q47 0 86 -14q48 -17 86 -59q36 -40 61 -104t39 -152q16 -94 28 -171t24 -135q10 -58 18 -99t14 -65q16 -78 34 -137t38 -97q18 -40 38 -59t42 -19q16 0 36 12t44 38t52 64 t60 88q32 52 57 96t43 84q16 38 26 71t12 59q2 18 2 33q0 24 -4 44q-6 33 -24 55q-16 22 -44 33t-68 11q-18 0 -37 -2t-37 -6q-20 -6 -39 -12t-39 -14q38 124 93 216t127 152t162 88q79 24 170 24h26q78 -2 136 -29t96 -77q36 -52 53 -127q14 -61 14 -138q0 -18 -1 -37 q-4 -76 -32 -164t-80 -192q-52 -102 -129 -218t-177 -246q-106 -136 -202 -238t-184 -170t-169 -101t-153 -33q-44 0 -85 20t-79 62t-73 104t-65 144q-20 76 -41 152t-41 150q-22 76 -42 152t-42 152q-22 82 -46 144t-48 104q-26 42 -51 62t-51 20q-12 0 -52 -24t-110 -72z " />
<glyph unicode="t" d="M296 122l86 -86l2 4l178 844l-178 -850l224 22l124 686l40 24l2 2l4 26l2 12l40 322l-40 6l-30 -46l-32 -216l-144 32l-56 -48l-26 -108l-28 -22l-166 -598zM600 10l108 -46l24 6l6 2l46 420l42 134l-42 -134l-46 -420l-2 -20l176 -74l358 60v18l6 2l56 -8v2l-6 2l190 32 l-8 38h2l58 -16l78 16l-2 16v-2l110 20l-154 738l-64 24l-70 -28l-18 114l-130 50l-42 422l66 68l-274 176l-46 28l-18 10l-208 -276l52 -38l-68 -540l-4 -38v-2l24 -14l62 -32l-4 -32v2l4 30l-2 2h-2l-56 30l-26 14v2h2h-2l-4 -2l-40 -24l-124 -686zM822 884l2 24l136 96 v-22zM838 1012l2 16l124 102l2 -2v-20l-126 -100zM850 1108l2 10v16l120 112l-2 -24zM862 1208l2 14l2 14l110 112l-2 -26zM876 1332l4 22l100 94l-2 -22zM962 670l10 182zM976 888l8 -2l-8 2v2v-2l10 -2l4 -2l-6 2zM992 884zM1024 1650l44 -30l-14 306h-8zM1090 1418v74 l46 -24l2 -76zM1092 930l64 -24v-110l-14 4l2 38l-50 14zM1092 1094v96l54 -26l4 -94zM1092 1216v76l50 -26l4 -74zM1092 1320l2 70l48 -26v-70zM1094 964v98l58 -24l4 -96zM1176 1448l42 -24l4 -76l-44 24zM1180 1342l46 -22l2 -70l-46 24zM1182 1246l46 -24l6 -74l-48 24z M1186 1144l50 -22l6 -92l-52 22zM1190 738l46 -18l4 -106l8 -160l18 -398l4 -74v-10l-4 80l-18 400l-8 162l-46 16zM1190 894l52 -14l6 -86l-16 -8v-14l-38 14zM1192 1018l52 -20l4 -92l-54 18zM1314 38l4 -86h-2z" />
<glyph unicode="u" d="M126 1618h350q32 -284 87 -500t125 -382t153 -293t171 -235q50 48 97 105t91 119q46 64 87 133t79 143q-88 44 -158 113t-118 157t-74 192t-26 218t33 212t93 170q62 74 151 114t201 40q110 0 195 -33t141 -97q58 -64 88 -156t30 -210q0 -42 -5 -88t-13 -92 q-10 -46 -23 -89t-31 -83q-54 -11 -98 -11q-88 0 -133 44l-67 65q6 20 13 46t13 56t10 62t4 62q0 54 -10 95t-28 69q-16 26 -41 40t-55 14q-32 0 -58 -15t-46 -45q-18 -30 -29 -73t-11 -101q0 -118 36 -210t98 -154q62 -64 145 -97t181 -33q16 0 34 1t36 3t38 5t44 9v-244 q-32 -8 -64 -13t-64 -9t-62 -5t-58 -1q-64 -136 -149 -259t-169 -221q-84 -96 -156 -162t-110 -88q-24 -14 -48 -21t-50 -7q-24 0 -49 8t-53 24q-46 28 -150 126t-220 296q-118 198 -228 512t-170 774z" />
<glyph unicode="v" d="M0 902q0 96 36 180t100 148q62 62 147 99t181 37t181 -37t147 -99q64 -64 100 -148t36 -180q0 -98 -36 -182t-100 -148q-62 -62 -147 -99t-181 -37t-181 37t-147 99q-64 64 -100 148t-36 182zM1120 902q0 96 36 180t100 148q62 62 147 99t181 37t181 -37t147 -99 q64 -64 100 -148t36 -180q0 -98 -36 -182t-100 -148q-62 -62 -147 -99t-181 -37t-181 37t-147 99q-64 64 -100 148t-36 182z" />
<glyph unicode="w" d="M0 716h48h48h48h48q2 -6 3 -11t3 -11q4 -20 13 -39t21 -33q12 -16 29 -26t39 -16q24 -6 46 -7t44 5q20 6 40 17t36 31q22 22 35 53t15 65v14q0 25 -5 50q-7 32 -25 60q-20 28 -48 45t-62 23q-15 3 -30 3q-17 0 -35 -4q-33 -7 -61 -27l-16 -12t-12 -14q-10 -16 -24 -20 t-32 -2h-33h-33h-35h-35q12 66 23 132t23 132t24 131t24 131h133h133h133h133v-38v-40v-39v-41h-10h-10h-89h-89h-89t-89 2q-10 0 -14 -4t-6 -14q-4 -24 -8 -47t-8 -47t-9 -47t-9 -47v-5v-7q28 26 57 41t61 23q30 8 63 8t67 -6q36 -6 66 -20t56 -36q24 -20 45 -46t37 -58 q4 8 7 15t7 13q24 48 58 84t78 58q42 22 91 30q24 4 49.5 4t51.5 -4q32 -4 62 -13t58 -23t53 -32t49 -40l28 -28l28 -28q12 -14 26 -29t28 -29l5 5t5 7q14 14 28 29t30 31q14 14 28 29t28 29q20 18 41 33t45 27q22 12 47 20t53 12q26 3 53 3q23 0 46 -2q51 -5 99 -25 q48 -22 87 -58t63 -92q20 -46 29 -90t9 -90q-2 -44 -13 -88t-33 -88q-20 -40 -47 -70t-61 -50t-73 -31t-83 -15q-11 -1 -23 -1q-22 0 -44 3q-33 4 -65 14q-30 10 -59 26t-57 38q-14 12 -29 26t-29 28l-28 28t-30 28l-10 10l-14 14q-8 -8 -15 -16t-15 -16l-16 -16l-16 -16 q-10 -10 -22 -21t-24 -23l-24 -20t-26 -20q-32 -24 -66 -39t-70 -21q-32 -7 -66 -7h-8q-38 1 -76 9t-70 24t-58 38q-28 22 -49 51t-39 63q-2 2 -3 5t-3 7l-1 1l-1 1q-4 -8 -9 -16t-11 -16q-4 -8 -9 -15t-11 -15q-24 -36 -54 -62t-66 -44q-34 -16 -73 -26t-81 -10 q-24 0 -48 1t-48 5t-47 10t-45 16q-48 20 -81 49t-55 63q-22 36 -32 75t-12 81zM836 780l-2 -20q0 -25 8 -47q10 -31 30 -53q20 -24 49 -36t63 -12q16 2 31 4t29 6t28 10t26 14q20 10 37 23t33 29q16 14 32 29t32 31q4 4 4 8t-4 8q-14 12 -26 24t-24 22l-24 24t-24 22 t-23 18t-25 16q-12 8 -25 13t-27 11q-26 8 -51 8q-7 0 -14 -1q-31 -3 -57 -17q-24 -14 -43 -38t-27 -56q-4 -10 -5 -20t-1 -20zM1460 768q16 -14 30 -28t28 -26t28 -25t28 -25q16 -12 33 -22t35 -18q18 -6 38 -9t40 -3q28 2 51 9t41 23q18 14 30 35t18 47q2 10 3 19t1 17v19 t-2 19q-4 32 -18 58t-36 42q-22 18 -50 26q-22 6 -47 6h-13q-20 -2 -38 -8t-34 -14t-31 -18t-29 -24q-14 -12 -27 -24t-25 -24q-14 -12 -27 -25z" />
<glyph unicode="x" d="M0 98q0 -10 2 -20q4 -42 25 -79t53 -63q30 -28 69 -43t83 -15h395h395h396h394h15h13q44 6 81 26t65 52t44 71t16 83v396v394v396v396v9v11q-6 46 -26 85t-52 67t-73 45t-87 17h-393h-393h-393t-393 -2h-21t-21 -2q-44 -10 -80 -31t-60 -51q-26 -32 -40 -71t-14 -85v-196 v-196v-196v-196v-194v-196v-196v-196v-20zM226 196v213v213v213v213q0 4 0 3t0 13h46h48h47h45q-14 -60 -18 -119q-2 -24 -2 -47q0 -35 4 -68q6 -58 24 -113t46 -107q20 -40 46 -76t56 -68t65 -59t75 -51q76 -44 162 -65q79 -19 157 -19h15q88 2 172 29t158 77q42 28 78 61 t64 71q30 38 54 80t42 90q18 46 28 92t14 94q1 13 1 27q0 34 -4 69q-5 50 -17 102h43h41h42h44q0 -14 0 -13t0 -1q0 -108 1 -214t1 -214q0 -106 1 -213t1 -213q0 -18 -6 -33t-16 -27q-10 -10 -25 -16t-33 -6h-353h-355h-354h-354q-18 0 -33 6t-27 16q-12 12 -18 27t-6 33z M628 900q0 82 31 154t85 126q54 52 125 83t153 31t154 -31t124 -83q54 -54 85 -126t31 -152q0 -82 -31 -154t-85 -126q-52 -52 -124 -83t-154 -31t-153 31t-125 83q-54 54 -85 126t-31 152zM1416 1374v59v59v59v59q0 16 6 31t18 25q10 10 25 16t31 6h59h57h59h59q16 0 31 -6 t25 -16q12 -10 18 -25t6 -33v-58v-58v-59v-59q0 -16 -6 -31t-18 -25q-10 -10 -24 -17t-32 -7h-29h-29h-30h-30h-28h-30h-28h-30t-31 6t-25 18q-12 10 -18 25t-6 31z" />
<glyph unicode="y" d="M0 902q0 -212 81 -399t219 -325q140 -140 326 -220t398 -80t398 80t326 220q138 138 219 325t81 399q0 210 -81 397t-219 325q-140 140 -326 221t-398 81t-398 -81t-326 -221q-138 -138 -219 -325t-81 -397zM104 902q0 50 5 98t15 96q10 46 25 91t35 89l438 -1204 q-114 56 -210 141t-164 193t-106 233t-38 263zM254 1406q62 94 145 171t181 131q100 54 212 84t232 30q90 0 175 -17t165 -47q78 -32 149 -77t133 -101h-7h-5q-34 0 -62 -13t-50 -37q-20 -22 -31 -51t-11 -61q0 -30 7 -56t19 -52q14 -26 30 -53t34 -55q12 -24 26 -50t24 -58 q12 -30 19 -67t7 -79q0 -30 -6 -62t-14 -70q-10 -36 -23 -77t-27 -89l-92 -306l-334 988q42 2 74 6l32 4q18 2 27 14t7 26q0 14 -10 25t-30 11l-86 -6t-160 -6q-66 0 -154 6l-88 6q-18 0 -28 -11t-12 -25q0 -14 8 -27t26 -13l30 -4q30 -4 68 -6l142 -392l-200 -604l-336 996 q42 2 74 6l32 4q18 2 26 14t8 26q-2 14 -12 25t-28 11l-87 -6q-87 -6 -159 -6h-28h-32zM764 18l276 802l284 -774q0 -4 2 -7t4 -7q-36 -12 -73 -22t-75 -16q-40 -6 -79 -10t-79 -4q-34 0 -67 3t-65 7q-34 4 -66 11t-62 17zM1486 106l282 812q20 50 33 94t21 86q8 40 12 78 t4 72v25t-2 25q0 12 -1 23t-3 21q26 -48 47 -101t37 -109q14 -54 21 -112t7 -118q0 -128 -33 -246t-93 -220t-144 -186t-188 -144z" />
<glyph unicode="z" d="M394 1086v290q30 10 58 22t54 26t49 30t45 34t41 38t37 42q16 22 31 46t29 50t24 55t20 61q8 34 15 70t13 76h290v-518h486v-322h-486v-526q0 -44 2 -80t4 -66q2 -28 6 -49t8 -33t11 -24t15 -22q10 -10 21 -19t23 -15q16 -10 35 -18t37 -14q20 -4 41 -7t43 -3q38 0 77 7 t77 19q40 12 78 31t76 45v-324q-32 -14 -63 -27t-61 -25q-30 -10 -58 -19t-54 -15q-28 -6 -55 -11t-57 -7q-28 -4 -58 -5t-62 -1q-34 0 -67 2t-65 6q-30 4 -59 11t-57 15q-26 10 -51 20t-49 24q-22 12 -43 27t-41 31q-18 16 -34 33t-30 35q-14 16 -24 34t-18 38 q-6 18 -12 41t-10 49q-2 26 -4 57t-2 67v718h-226z" />
<glyph unicode="&#xa0;" horiz-adv-x="1024" d="M0 0z" />
<glyph unicode="&#xa8;" d="M154 885q-48 -187 4 -411q50 -224 208 -410t438 -186q266 0 533 208t425 452t153 438t-281 166q-170 -16 -278 -27t-232 -17t-302 -12t-490 -12q-130 -2 -178 -189zM304 744q26 122 66 124q284 10 472 22t320 20t229 14t197 6q104 0 70 -131t-156 -289 q-120 -158 -303 -289t-377 -131q-244 0 -360 121t-150 267q-34 144 -8 266zM372 1708q-4 -36 5 -70t33 -60q26 -28 67 -43t99 -15q72 2 124 21t84 49q34 30 49 68t9 76q-2 32 -20 61t-48 51t-75 36t-103 14q-48 0 -87 -16t-67 -42q-30 -26 -47 -60t-23 -70zM1302 1734 q-4 -38 6 -73t36 -63q28 -28 71 -43t103 -11q68 4 117 21t81 43q32 28 47 60t15 66q2 38 -16 74t-52 64q-32 28 -81 42t-109 10q-48 -4 -87 -22t-67 -44q-26 -26 -43 -58t-21 -66z" />
<glyph unicode="&#xad;" d="M134 -52q-2 -14 2 -27t12 -23t20 -15t26 -5h352q20 0 37 6t31 18q12 12 21 27t13 35l80 510q4 18 13 34t23 28q12 12 29 18t37 6h232q182 0 326 44t250 132q104 88 170 219t94 305q12 78 12 146t-10 128q-12 58 -36 109t-60 93q-40 46 -94 82t-122 60q-68 22 -148 35 t-174 13h-736q-20 0 -37 -7t-31 -19q-12 -12 -21 -27t-13 -35zM806 970l78 494q2 12 8 21t14 17q8 6 18 10t22 4h50q50 0 98 -1t90 -9q42 -6 77 -22t59 -44q14 -16 24 -38t14 -46q4 -26 4 -56t-6 -66q-16 -98 -58 -152t-102 -78q-62 -26 -133 -30t-145 -4h-112z" />
<glyph unicode="&#x2000;" horiz-adv-x="967" />
<glyph unicode="&#x2001;" horiz-adv-x="1934" />
<glyph unicode="&#x2002;" horiz-adv-x="967" />
<glyph unicode="&#x2003;" horiz-adv-x="1934" />
<glyph unicode="&#x2004;" horiz-adv-x="644" />
<glyph unicode="&#x2005;" horiz-adv-x="483" />
<glyph unicode="&#x2006;" horiz-adv-x="322" />
<glyph unicode="&#x2007;" horiz-adv-x="322" />
<glyph unicode="&#x2008;" horiz-adv-x="241" />
<glyph unicode="&#x2009;" horiz-adv-x="386" />
<glyph unicode="&#x200a;" horiz-adv-x="107" />
<glyph unicode="&#x2010;" d="M134 -52q-2 -14 2 -27t12 -23t20 -15t26 -5h352q20 0 37 6t31 18q12 12 21 27t13 35l80 510q4 18 13 34t23 28q12 12 29 18t37 6h232q182 0 326 44t250 132q104 88 170 219t94 305q12 78 12 146t-10 128q-12 58 -36 109t-60 93q-40 46 -94 82t-122 60q-68 22 -148 35 t-174 13h-736q-20 0 -37 -7t-31 -19q-12 -12 -21 -27t-13 -35zM806 970l78 494q2 12 8 21t14 17q8 6 18 10t22 4h50q50 0 98 -1t90 -9q42 -6 77 -22t59 -44q14 -16 24 -38t14 -46q4 -26 4 -56t-6 -66q-16 -98 -58 -152t-102 -78q-62 -26 -133 -30t-145 -4h-112z" />
<glyph unicode="&#x2011;" d="M134 -52q-2 -14 2 -27t12 -23t20 -15t26 -5h352q20 0 37 6t31 18q12 12 21 27t13 35l80 510q4 18 13 34t23 28q12 12 29 18t37 6h232q182 0 326 44t250 132q104 88 170 219t94 305q12 78 12 146t-10 128q-12 58 -36 109t-60 93q-40 46 -94 82t-122 60q-68 22 -148 35 t-174 13h-736q-20 0 -37 -7t-31 -19q-12 -12 -21 -27t-13 -35zM806 970l78 494q2 12 8 21t14 17q8 6 18 10t22 4h50q50 0 98 -1t90 -9q42 -6 77 -22t59 -44q14 -16 24 -38t14 -46q4 -26 4 -56t-6 -66q-16 -98 -58 -152t-102 -78q-62 -26 -133 -30t-145 -4h-112z" />
<glyph unicode="&#x2012;" d="M134 -52q-2 -14 2 -27t12 -23t20 -15t26 -5h352q20 0 37 6t31 18q12 12 21 27t13 35l80 510q4 18 13 34t23 28q12 12 29 18t37 6h232q182 0 326 44t250 132q104 88 170 219t94 305q12 78 12 146t-10 128q-12 58 -36 109t-60 93q-40 46 -94 82t-122 60q-68 22 -148 35 t-174 13h-736q-20 0 -37 -7t-31 -19q-12 -12 -21 -27t-13 -35zM806 970l78 494q2 12 8 21t14 17q8 6 18 10t22 4h50q50 0 98 -1t90 -9q42 -6 77 -22t59 -44q14 -16 24 -38t14 -46q4 -26 4 -56t-6 -66q-16 -98 -58 -152t-102 -78q-62 -26 -133 -30t-145 -4h-112z" />
<glyph unicode="&#x2013;" horiz-adv-x="1291" d="M133 -52q-1 -14 1.5 -27t6.5 -23q5 -10 12 -15t15 -5h202q12 0 21.5 6t17.5 18q7 12 12.5 27t7.5 35l46 510q2 18 7.5 34t13.5 28q7 12 16.5 18t21.5 6h133q105 0 187.5 44t143.5 132q60 88 98 219t54 305q7 78 7 146t-6 128q-7 58 -20.5 109t-34.5 93q-23 46 -54 82 t-70 60q-39 22 -85 35t-100 13h-424q-11 0 -21 -7t-18 -19q-7 -12 -12 -27t-7 -35zM520 970l45 494q1 12 4.5 21t7.5 17q5 6 10.5 10t12.5 4h29q29 0 56.5 -1t51.5 -9q24 -6 44.5 -22t33.5 -44q8 -16 14 -38t8 -46q3 -26 3 -56t-4 -66q-9 -98 -33 -152t-59 -78 q-36 -26 -76.5 -30t-83.5 -4h-64z" />
<glyph unicode="&#x2014;" horiz-adv-x="2315" d="M134 -52q-3 -14 2 -27t14 -23t23 -15t30 -5h405q23 0 42.5 6t35.5 18q14 12 24 27t15 35l92 510q5 18 15 34t26 28q14 12 33.5 18t42.5 6h267q209 0 375 44t288 132q119 88 195 219t108 305q14 78 14 146t-12 128q-13 58 -41 109t-69 93q-46 46 -108 82t-140 60 q-79 22 -171 35t-200 13h-846q-23 0 -42.5 -7t-35.5 -19q-14 -12 -24.5 -27t-14.5 -35zM907 970l89 494q3 12 9.5 21t16.5 17q9 6 20.5 10t25.5 4h57q58 0 113 -1t103 -9q49 -6 89 -22t68 -44q16 -16 27.5 -38t16.5 -46q4 -26 4 -56t-7 -66q-18 -98 -66.5 -152t-117.5 -78 q-71 -26 -152.5 -30t-167.5 -4h-128z" />
<glyph unicode="&#x202f;" horiz-adv-x="386" />
<glyph unicode="&#x205f;" horiz-adv-x="483" />
<glyph unicode="&#x25fc;" horiz-adv-x="1930" d="M0 0v1930h1930v-1930h-1930z" />
</font>
</defs>
</svg>
